<svg width="100%" height="100%" id="svg" viewBox="0 0 1440 590" xmlns="http://www.w3.org/2000/svg" class="transition duration-300 ease-in-out delay-150"><defs><linearGradient id="gradient" x1="0%" y1="50%" x2="100%" y2="50%"><stop offset="5%" stop-color="#1b2631"></stop><stop offset="95%" stop-color="#ecf0f1"></stop></linearGradient></defs><path d="M 0,600 C 0,600 0,120 0,120 C 23.687629008607665,115.0565164385475 47.37525801721533,110.11303287709502 75,119 C 102.62474198278467,127.88696712290498 134.18659693974632,150.60438493016744 154,141 C 173.81340306025368,131.39561506983256 181.87835422379933,89.46942740223528 202,78 C 222.12164577620067,66.53057259776472 254.29998616505623,85.5179054608914 286,91 C 317.7000138349438,96.4820945391086 348.9217011159759,88.45895075419912 369,85 C 389.0782988840241,81.54104924580088 398.0132093710402,82.64629152231207 419,96 C 439.9867906289598,109.35370847768793 473.0254613998633,134.95588315655263 502,125 C 530.9745386001367,115.04411684344737 555.8849450295069,69.5301758514774 578,77 C 600.1150549704931,84.4698241485226 619.4347584821088,144.92341343753776 644,148 C 668.5652415178912,151.07658656246224 698.3760210420577,96.77617039837159 721,78 C 743.6239789579423,59.2238296016284 759.0611573496606,75.97190496897579 781,88 C 802.9388426503394,100.02809503102421 831.3793495593004,107.33620972572527 858,113 C 884.6206504406996,118.66379027427473 909.4214444131374,122.68325612812313 934,114 C 958.5785555868626,105.31674387187687 982.9348727881497,83.93076576178215 1010,91 C 1037.0651272118503,98.06923423821785 1066.8390644342633,133.59368082474825 1091,140 C 1115.1609355657367,146.40631917525175 1133.7088694747968,123.69451093922493 1151,120 C 1168.2911305252032,116.30548906077507 1184.3254576665493,131.62827541835208 1213,135 C 1241.6745423334507,138.37172458164792 1282.9892998590062,129.79238738736674 1307,130 C 1331.0107001409938,130.20761261263326 1337.7173428974268,139.20217503218092 1357,139 C 1376.2826571025732,138.79782496781908 1408.1413285512867,129.39891248390956 1440,120 C 1440,120 1440,600 1440,600 Z" stroke="none" stroke-width="0" fill="url(#gradient)" fill-opacity="0.265" class="transition-all duration-300 ease-in-out delay-150 path-0"></path><defs><linearGradient id="gradient" x1="0%" y1="50%" x2="100%" y2="50%"><stop offset="5%" stop-color="#1b2631"></stop><stop offset="95%" stop-color="#ecf0f1"></stop></linearGradient></defs><path d="M 0,600 C 0,600 0,240 0,240 C 26.19391397614124,257.7446917380869 52.38782795228248,275.4893834761737 74,264 C 95.61217204771752,252.5106165238263 112.64260216701132,211.78715783339206 139,207 C 165.35739783298868,202.21284216660794 201.04176337967223,233.361985190258 223,232 C 244.95823662032777,230.638014809742 253.1903443142998,196.76490140557596 278,199 C 302.8096556857002,201.23509859442404 344.19685936312874,239.57840918743824 371,248 C 397.80314063687126,256.42159081256176 410.02221823318547,234.92146184467097 429,236 C 447.97778176681453,237.07853815532903 473.71426770412916,260.7357434338778 501,264 C 528.2857322958708,267.2642565661222 557.1207109502974,250.13556441981783 583,250 C 608.8792890497026,249.86443558018217 631.8028884946814,266.72199888685077 654,259 C 676.1971115053186,251.27800111314926 697.6677350709772,218.9764400327791 718,210 C 738.3322649290228,201.0235599672209 757.5261712214095,215.37224098203288 782,228 C 806.4738287785905,240.62775901796712 836.2275800433846,251.5345960390893 864,253 C 891.7724199566154,254.4654039609107 917.5635086050515,246.4893748616098 942,256 C 966.4364913949485,265.5106251383902 989.5183855364091,292.5079045144714 1011,282 C 1032.4816144635909,271.4920954855286 1052.3629492493114,223.47900708050437 1073,225 C 1093.6370507506886,226.52099291949563 1115.0298174663446,277.57606716351125 1142,273 C 1168.9701825336554,268.42393283648875 1201.5177808853095,208.21672426545058 1226,197 C 1250.4822191146905,185.78327573454942 1266.8990589924167,223.5570357746864 1293,234 C 1319.1009410075833,244.4429642253136 1354.8859831450236,227.5551326358039 1381,224 C 1407.1140168549764,220.4448673641961 1423.5570084274882,230.22243368209806 1440,240 C 1440,240 1440,600 1440,600 Z" stroke="none" stroke-width="0" fill="url(#gradient)" fill-opacity="0.4" class="transition-all duration-300 ease-in-out delay-150 path-1"></path><defs><linearGradient id="gradient" x1="0%" y1="50%" x2="100%" y2="50%"><stop offset="5%" stop-color="#1b2631"></stop><stop offset="95%" stop-color="#ecf0f1"></stop></linearGradient></defs><path d="M 0,600 C 0,600 0,360 0,360 C 23.635369550775586,334.7091091368934 47.27073910155117,309.41821827378686 68,322 C 88.72926089844883,334.58178172621314 106.55241314457086,385.0362360417459 135,400 C 163.44758685542914,414.9637639582541 202.5196083201654,394.4368375592297 228,391 C 253.4803916798346,387.5631624407703 265.3691535747676,401.21641372133564 289,395 C 312.6308464252324,388.78358627866436 348.00377738076423,362.6975075554279 370,361 C 391.99622261923577,359.3024924445721 400.61573690217557,381.9935560569529 425,374 C 449.38426309782443,366.0064439430471 489.53327501053343,327.32826821676065 516,333 C 542.4667249894666,338.67173178323935 555.2511630556911,388.69337107600455 572,403 C 588.7488369443089,417.30662892399545 609.4620727667019,395.89824747922114 637,381 C 664.5379272332981,366.10175252077886 698.9005458775014,357.71363900711094 726,349 C 753.0994541224986,340.28636099288906 772.9357437232926,331.2471964923351 795,330 C 817.0642562767074,328.7528035076649 841.3564792293282,335.29757502354863 868,346 C 894.6435207706718,356.70242497645137 923.6383393593944,371.56250341347015 944,375 C 964.3616606406056,378.43749658652985 976.0901633330935,370.45241132257075 996,375 C 1015.9098366669065,379.54758867742925 1044.001007308231,396.6278512962467 1069,389 C 1093.998992691769,381.3721487037533 1115.9058074339819,349.0361834924422 1143,335 C 1170.0941925660181,320.9638165075578 1202.37576295584,325.2274147339845 1227,327 C 1251.62423704416,328.7725852660155 1268.5911407426584,328.05415757161956 1292,336 C 1315.4088592573416,343.94584242838044 1345.2596740735262,360.5559549795372 1371,366 C 1396.7403259264738,371.4440450204628 1418.370162963237,365.7220225102314 1440,360 C 1440,360 1440,600 1440,600 Z" stroke="none" stroke-width="0" fill="url(#gradient)" fill-opacity="0.53" class="transition-all duration-300 ease-in-out delay-150 path-2"></path><defs><linearGradient id="gradient" x1="0%" y1="50%" x2="100%" y2="50%"><stop offset="5%" stop-color="#1b2631"></stop><stop offset="95%" stop-color="#ecf0f1"></stop></linearGradient></defs><path d="M 0,600 C 0,600 0,480 0,480 C 30.534861639511824,479.2633575506874 61.06972327902365,478.5267151013747 83,483 C 104.93027672097635,487.4732848986253 118.25596852341721,497.1564971451884 136,501 C 153.7440314765828,504.8435028548116 175.90640262730759,502.84729631787195 205,492 C 234.09359737269241,481.15270368212805 270.1184209673524,461.45431758332364 296,458 C 321.8815790326476,454.54568241667636 337.61991350328304,467.3354333488333 356,485 C 374.38008649671696,502.6645666511667 395.40192501951566,525.2039490213429 421,514 C 446.59807498048434,502.7960509786572 476.77238641865415,457.84877056579535 500,449 C 523.2276135813458,440.15122943420465 539.5085293058676,467.4009687154759 563,480 C 586.4914706941324,492.5990312845241 617.1934963578757,490.5473545723007 645,476 C 672.8065036421243,461.4526454276993 697.7174852626292,434.4096129953211 721,436 C 744.2825147373708,437.5903870046789 765.9365625916073,467.81419344641506 789,466 C 812.0634374083927,464.18580655358494 836.5362643709412,430.3336132190188 864,439 C 891.4637356290588,447.6663867809812 921.9183799246276,498.85135367751013 946,499 C 970.0816200753724,499.14864632248987 987.7902159305488,448.26097207094085 1012,447 C 1036.2097840694512,445.73902792905915 1066.9207563531763,494.10475803872646 1092,501 C 1117.0792436468237,507.89524196127354 1136.5267586567454,473.3199957741534 1160,465 C 1183.4732413432546,456.6800042258466 1210.972209019841,474.6152588646598 1233,480 C 1255.027790980159,485.3847411353402 1271.584405263889,478.218968767207 1295,486 C 1318.415594736111,493.781031232793 1348.6901699246032,516.5088660665123 1374,518 C 1399.3098300753968,519.4911339334877 1419.6549150376984,499.74556696674387 1440,480 C 1440,480 1440,600 1440,600 Z" stroke="none" stroke-width="0" fill="url(#gradient)" fill-opacity="1" class="transition-all duration-300 ease-in-out delay-150 path-3"></path></svg>