<svg xmlns="http://www.w3.org/2000/svg" version="1.1" xmlns:xlink="http://www.w3.org/1999/xlink" xmlns:svgjs="http://svgjs.com/svgjs" width="1440" height="560" preserveAspectRatio="none" viewBox="0 0 1440 560"><g mask="url(&quot;#SvgjsMask1034&quot;)" fill="none"><rect width="1440" height="560" x="0" y="0" fill="rgba(255, 255, 255, 1)"></rect><path d="M-68.5 346.67L-68.5 346.67" stroke="rgba(0, 0, 0, 1)" stroke-width="1.5"></path><path d="M-68.5 346.67L38.49 377.87" stroke="rgba(0, 0, 0, 1)" stroke-width="1.5"></path><path d="M-68.5 346.67L-106.15 542.44" stroke="rgba(0, 0, 0, 1)" stroke-width="1.5"></path><path d="M-106.15 542.44L-106.15 542.44" stroke="rgba(0, 0, 0, 1)" stroke-width="1.5"></path><path d="M-106.15 542.44L70.51 541.43" stroke="rgba(0, 0, 0, 1)" stroke-width="1.5"></path><path d="M-106.15 542.44L-37.64 710.96" stroke="rgba(0, 0, 0, 1)" stroke-width="1.5"></path><path d="M-37.64 710.96L-37.64 710.96" stroke="rgba(0, 0, 0, 1)" stroke-width="1.5"></path><path d="M-37.64 710.96L41.78 684.25" stroke="rgba(0, 0, 0, 1)" stroke-width="1.5"></path><path d="M-37.64 710.96L70.51 541.43" stroke="rgba(0, 0, 0, 1)" stroke-width="1.5"></path><path d="M-37.64 710.96L249.39 703.4" stroke="rgba(0, 0, 0, 1)" stroke-width="1.5"></path><path d="M-37.64 710.96L214.8 541.98" stroke="rgba(0, 0, 0, 1)" stroke-width="1.5"></path><path d="M38.49 377.87L38.49 377.87" stroke="rgba(0, 0, 0, 1)" stroke-width="1.5"></path><path d="M38.49 377.87L70.51 541.43" stroke="rgba(0, 0, 0, 1)" stroke-width="1.5"></path><path d="M38.49 377.87L207.52 412.22" stroke="rgba(0, 0, 0, 1)" stroke-width="1.5"></path><path d="M70.51 541.43L70.51 541.43" stroke="rgba(0, 0, 0, 1)" stroke-width="1.5"></path><path d="M70.51 541.43L214.8 541.98" stroke="rgba(0, 0, 0, 1)" stroke-width="1.5"></path><path d="M70.51 541.43L41.78 684.25" stroke="rgba(0, 0, 0, 1)" stroke-width="1.5"></path><path d="M41.78 684.25L41.78 684.25" stroke="rgba(0, 0, 0, 1)" stroke-width="1.5"></path><path d="M207.52 412.22L207.52 412.22" stroke="rgba(0, 0, 0, 1)" stroke-width="1.5"></path><path d="M207.52 412.22L214.8 541.98" stroke="rgba(0, 0, 0, 1)" stroke-width="1.5"></path><path d="M207.52 412.22L70.51 541.43" stroke="rgba(0, 0, 0, 1)" stroke-width="1.5"></path><path d="M207.52 412.22L409.4 409.61" stroke="rgba(0, 0, 0, 1)" stroke-width="1.5"></path><path d="M214.8 541.98L214.8 541.98" stroke="rgba(0, 0, 0, 1)" stroke-width="1.5"></path><path d="M214.8 541.98L349.94 559.56" stroke="rgba(0, 0, 0, 1)" stroke-width="1.5"></path><path d="M249.39 703.4L249.39 703.4" stroke="rgba(0, 0, 0, 1)" stroke-width="1.5"></path><path d="M249.39 703.4L398.79 704.39" stroke="rgba(0, 0, 0, 1)" stroke-width="1.5"></path><path d="M249.39 703.4L214.8 541.98" stroke="rgba(0, 0, 0, 1)" stroke-width="1.5"></path><path d="M249.39 703.4L349.94 559.56" stroke="rgba(0, 0, 0, 1)" stroke-width="1.5"></path><path d="M249.39 703.4L41.78 684.25" stroke="rgba(0, 0, 0, 1)" stroke-width="1.5"></path><path d="M409.4 409.61L409.4 409.61" stroke="rgba(0, 0, 0, 1)" stroke-width="1.5"></path><path d="M409.4 409.61L552.2 360.13" stroke="rgba(0, 0, 0, 1)" stroke-width="1.5"></path><path d="M409.4 409.61L349.94 559.56" stroke="rgba(0, 0, 0, 1)" stroke-width="1.5"></path><path d="M349.94 559.56L349.94 559.56" stroke="rgba(0, 0, 0, 1)" stroke-width="1.5"></path><path d="M349.94 559.56L398.79 704.39" stroke="rgba(0, 0, 0, 1)" stroke-width="1.5"></path><path d="M349.94 559.56L504.19 644.74" stroke="rgba(0, 0, 0, 1)" stroke-width="1.5"></path><path d="M349.94 559.56L207.52 412.22" stroke="rgba(0, 0, 0, 1)" stroke-width="1.5"></path><path d="M398.79 704.39L398.79 704.39" stroke="rgba(0, 0, 0, 1)" stroke-width="1.5"></path><path d="M398.79 704.39L504.19 644.74" stroke="rgba(0, 0, 0, 1)" stroke-width="1.5"></path><path d="M398.79 704.39L214.8 541.98" stroke="rgba(0, 0, 0, 1)" stroke-width="1.5"></path><path d="M398.79 704.39L673.33 674.94" stroke="rgba(0, 0, 0, 1)" stroke-width="1.5"></path><path d="M398.79 704.39L409.4 409.61" stroke="rgba(0, 0, 0, 1)" stroke-width="1.5"></path><path d="M552.2 360.13L552.2 360.13" stroke="rgba(0, 0, 0, 1)" stroke-width="1.5"></path><path d="M552.2 360.13L639.93 356.71" stroke="rgba(0, 0, 0, 1)" stroke-width="1.5"></path><path d="M552.2 360.13L700.18 245.93" stroke="rgba(0, 0, 0, 1)" stroke-width="1.5"></path><path d="M552.2 360.13L648.72 536.98" stroke="rgba(0, 0, 0, 1)" stroke-width="1.5"></path><path d="M504.19 644.74L504.19 644.74" stroke="rgba(0, 0, 0, 1)" stroke-width="1.5"></path><path d="M504.19 644.74L673.33 674.94" stroke="rgba(0, 0, 0, 1)" stroke-width="1.5"></path><path d="M700.18 245.93L700.18 245.93" stroke="rgba(0, 0, 0, 1)" stroke-width="1.5"></path><path d="M700.18 245.93L793.57 259.76" stroke="rgba(0, 0, 0, 1)" stroke-width="1.5"></path><path d="M700.18 245.93L639.93 356.71" stroke="rgba(0, 0, 0, 1)" stroke-width="1.5"></path><path d="M700.18 245.93L857.35 342.01" stroke="rgba(0, 0, 0, 1)" stroke-width="1.5"></path><path d="M700.18 245.93L947.72 236.44" stroke="rgba(0, 0, 0, 1)" stroke-width="1.5"></path><path d="M700.18 245.93L798.65 492.8" stroke="rgba(0, 0, 0, 1)" stroke-width="1.5"></path><path d="M639.93 356.71L639.93 356.71" stroke="rgba(0, 0, 0, 1)" stroke-width="1.5"></path><path d="M639.93 356.71L648.72 536.98" stroke="rgba(0, 0, 0, 1)" stroke-width="1.5"></path><path d="M639.93 356.71L793.57 259.76" stroke="rgba(0, 0, 0, 1)" stroke-width="1.5"></path><path d="M648.72 536.98L648.72 536.98" stroke="rgba(0, 0, 0, 1)" stroke-width="1.5"></path><path d="M648.72 536.98L673.33 674.94" stroke="rgba(0, 0, 0, 1)" stroke-width="1.5"></path><path d="M648.72 536.98L798.65 492.8" stroke="rgba(0, 0, 0, 1)" stroke-width="1.5"></path><path d="M648.72 536.98L504.19 644.74" stroke="rgba(0, 0, 0, 1)" stroke-width="1.5"></path><path d="M648.72 536.98L848.62 646.89" stroke="rgba(0, 0, 0, 1)" stroke-width="1.5"></path><path d="M673.33 674.94L673.33 674.94" stroke="rgba(0, 0, 0, 1)" stroke-width="1.5"></path><path d="M673.33 674.94L848.62 646.89" stroke="rgba(0, 0, 0, 1)" stroke-width="1.5"></path><path d="M673.33 674.94L798.65 492.8" stroke="rgba(0, 0, 0, 1)" stroke-width="1.5"></path><path d="M673.33 674.94L939.75 662.97" stroke="rgba(0, 0, 0, 1)" stroke-width="1.5"></path><path d="M793.57 259.76L793.57 259.76" stroke="rgba(0, 0, 0, 1)" stroke-width="1.5"></path><path d="M793.57 259.76L857.35 342.01" stroke="rgba(0, 0, 0, 1)" stroke-width="1.5"></path><path d="M793.57 259.76L947.72 236.44" stroke="rgba(0, 0, 0, 1)" stroke-width="1.5"></path><path d="M793.57 259.76L941.63 371.15" stroke="rgba(0, 0, 0, 1)" stroke-width="1.5"></path><path d="M793.57 259.76L798.65 492.8" stroke="rgba(0, 0, 0, 1)" stroke-width="1.5"></path><path d="M857.35 342.01L857.35 342.01" stroke="rgba(0, 0, 0, 1)" stroke-width="1.5"></path><path d="M857.35 342.01L941.63 371.15" stroke="rgba(0, 0, 0, 1)" stroke-width="1.5"></path><path d="M857.35 342.01L947.72 236.44" stroke="rgba(0, 0, 0, 1)" stroke-width="1.5"></path><path d="M857.35 342.01L798.65 492.8" stroke="rgba(0, 0, 0, 1)" stroke-width="1.5"></path><path d="M798.65 492.8L798.65 492.8" stroke="rgba(0, 0, 0, 1)" stroke-width="1.5"></path><path d="M798.65 492.8L947.43 524.37" stroke="rgba(0, 0, 0, 1)" stroke-width="1.5"></path><path d="M798.65 492.8L848.62 646.89" stroke="rgba(0, 0, 0, 1)" stroke-width="1.5"></path><path d="M848.62 646.89L848.62 646.89" stroke="rgba(0, 0, 0, 1)" stroke-width="1.5"></path><path d="M848.62 646.89L939.75 662.97" stroke="rgba(0, 0, 0, 1)" stroke-width="1.5"></path><path d="M848.62 646.89L947.43 524.37" stroke="rgba(0, 0, 0, 1)" stroke-width="1.5"></path><path d="M848.62 646.89L1099.65 657.54" stroke="rgba(0, 0, 0, 1)" stroke-width="1.5"></path><path d="M966.54 -37.53L966.54 -37.53" stroke="rgba(0, 0, 0, 1)" stroke-width="1.5"></path><path d="M966.54 -37.53L951 84.81" stroke="rgba(0, 0, 0, 1)" stroke-width="1.5"></path><path d="M966.54 -37.53L1122.76 41.81" stroke="rgba(0, 0, 0, 1)" stroke-width="1.5"></path><path d="M966.54 -37.53L1142.16 -69.15" stroke="rgba(0, 0, 0, 1)" stroke-width="1.5"></path><path d="M966.54 -37.53L947.72 236.44" stroke="rgba(0, 0, 0, 1)" stroke-width="1.5"></path><path d="M966.54 -37.53L1256.33 -65.35" stroke="rgba(0, 0, 0, 1)" stroke-width="1.5"></path><path d="M966.54 -37.53L1146.09 195.75" stroke="rgba(0, 0, 0, 1)" stroke-width="1.5"></path><path d="M951 84.81L951 84.81" stroke="rgba(0, 0, 0, 1)" stroke-width="1.5"></path><path d="M951 84.81L947.72 236.44" stroke="rgba(0, 0, 0, 1)" stroke-width="1.5"></path><path d="M951 84.81L1122.76 41.81" stroke="rgba(0, 0, 0, 1)" stroke-width="1.5"></path><path d="M951 84.81L1146.09 195.75" stroke="rgba(0, 0, 0, 1)" stroke-width="1.5"></path><path d="M947.72 236.44L947.72 236.44" stroke="rgba(0, 0, 0, 1)" stroke-width="1.5"></path><path d="M947.72 236.44L941.63 371.15" stroke="rgba(0, 0, 0, 1)" stroke-width="1.5"></path><path d="M947.72 236.44L1146.09 195.75" stroke="rgba(0, 0, 0, 1)" stroke-width="1.5"></path><path d="M947.72 236.44L1145.11 352.41" stroke="rgba(0, 0, 0, 1)" stroke-width="1.5"></path><path d="M941.63 371.15L941.63 371.15" stroke="rgba(0, 0, 0, 1)" stroke-width="1.5"></path><path d="M941.63 371.15L947.43 524.37" stroke="rgba(0, 0, 0, 1)" stroke-width="1.5"></path><path d="M941.63 371.15L798.65 492.8" stroke="rgba(0, 0, 0, 1)" stroke-width="1.5"></path><path d="M947.43 524.37L947.43 524.37" stroke="rgba(0, 0, 0, 1)" stroke-width="1.5"></path><path d="M947.43 524.37L939.75 662.97" stroke="rgba(0, 0, 0, 1)" stroke-width="1.5"></path><path d="M939.75 662.97L939.75 662.97" stroke="rgba(0, 0, 0, 1)" stroke-width="1.5"></path><path d="M939.75 662.97L1099.65 657.54" stroke="rgba(0, 0, 0, 1)" stroke-width="1.5"></path><path d="M1142.16 -69.15L1142.16 -69.15" stroke="rgba(0, 0, 0, 1)" stroke-width="1.5"></path><path d="M1142.16 -69.15L1122.76 41.81" stroke="rgba(0, 0, 0, 1)" stroke-width="1.5"></path><path d="M1142.16 -69.15L1256.33 -65.35" stroke="rgba(0, 0, 0, 1)" stroke-width="1.5"></path><path d="M1142.16 -69.15L1298.18 104.94" stroke="rgba(0, 0, 0, 1)" stroke-width="1.5"></path><path d="M1122.76 41.81L1122.76 41.81" stroke="rgba(0, 0, 0, 1)" stroke-width="1.5"></path><path d="M1122.76 41.81L1146.09 195.75" stroke="rgba(0, 0, 0, 1)" stroke-width="1.5"></path><path d="M1122.76 41.81L1256.33 -65.35" stroke="rgba(0, 0, 0, 1)" stroke-width="1.5"></path><path d="M1122.76 41.81L1298.18 104.94" stroke="rgba(0, 0, 0, 1)" stroke-width="1.5"></path><path d="M1146.09 195.75L1146.09 195.75" stroke="rgba(0, 0, 0, 1)" stroke-width="1.5"></path><path d="M1146.09 195.75L1241.22 252.64" stroke="rgba(0, 0, 0, 1)" stroke-width="1.5"></path><path d="M1146.09 195.75L1145.11 352.41" stroke="rgba(0, 0, 0, 1)" stroke-width="1.5"></path><path d="M1146.09 195.75L1298.18 104.94" stroke="rgba(0, 0, 0, 1)" stroke-width="1.5"></path><path d="M1145.11 352.41L1145.11 352.41" stroke="rgba(0, 0, 0, 1)" stroke-width="1.5"></path><path d="M1145.11 352.41L1241.22 252.64" stroke="rgba(0, 0, 0, 1)" stroke-width="1.5"></path><path d="M1145.11 352.41L1294.5 388.3" stroke="rgba(0, 0, 0, 1)" stroke-width="1.5"></path><path d="M1121.13 545.31L1121.13 545.31" stroke="rgba(0, 0, 0, 1)" stroke-width="1.5"></path><path d="M1121.13 545.31L1099.65 657.54" stroke="rgba(0, 0, 0, 1)" stroke-width="1.5"></path><path d="M1121.13 545.31L1250.88 649.87" stroke="rgba(0, 0, 0, 1)" stroke-width="1.5"></path><path d="M1121.13 545.31L947.43 524.37" stroke="rgba(0, 0, 0, 1)" stroke-width="1.5"></path><path d="M1121.13 545.31L1307.08 532" stroke="rgba(0, 0, 0, 1)" stroke-width="1.5"></path><path d="M1099.65 657.54L1099.65 657.54" stroke="rgba(0, 0, 0, 1)" stroke-width="1.5"></path><path d="M1099.65 657.54L1250.88 649.87" stroke="rgba(0, 0, 0, 1)" stroke-width="1.5"></path><path d="M1099.65 657.54L947.43 524.37" stroke="rgba(0, 0, 0, 1)" stroke-width="1.5"></path><path d="M1099.65 657.54L1307.08 532" stroke="rgba(0, 0, 0, 1)" stroke-width="1.5"></path><path d="M1256.33 -65.35L1256.33 -65.35" stroke="rgba(0, 0, 0, 1)" stroke-width="1.5"></path><path d="M1256.33 -65.35L1298.18 104.94" stroke="rgba(0, 0, 0, 1)" stroke-width="1.5"></path><path d="M1256.33 -65.35L1438.33 -104.67" stroke="rgba(0, 0, 0, 1)" stroke-width="1.5"></path><path d="M1256.33 -65.35L1423.79 38.72" stroke="rgba(0, 0, 0, 1)" stroke-width="1.5"></path><path d="M1256.33 -65.35L1146.09 195.75" stroke="rgba(0, 0, 0, 1)" stroke-width="1.5"></path><path d="M1298.18 104.94L1298.18 104.94" stroke="rgba(0, 0, 0, 1)" stroke-width="1.5"></path><path d="M1298.18 104.94L1423.79 38.72" stroke="rgba(0, 0, 0, 1)" stroke-width="1.5"></path><path d="M1298.18 104.94L1241.22 252.64" stroke="rgba(0, 0, 0, 1)" stroke-width="1.5"></path><path d="M1298.18 104.94L1424.31 205.01" stroke="rgba(0, 0, 0, 1)" stroke-width="1.5"></path><path d="M1241.22 252.64L1241.22 252.64" stroke="rgba(0, 0, 0, 1)" stroke-width="1.5"></path><path d="M1241.22 252.64L1294.5 388.3" stroke="rgba(0, 0, 0, 1)" stroke-width="1.5"></path><path d="M1294.5 388.3L1294.5 388.3" stroke="rgba(0, 0, 0, 1)" stroke-width="1.5"></path><path d="M1294.5 388.3L1307.08 532" stroke="rgba(0, 0, 0, 1)" stroke-width="1.5"></path><path d="M1294.5 388.3L1453.87 337.88" stroke="rgba(0, 0, 0, 1)" stroke-width="1.5"></path><path d="M1294.5 388.3L1424.31 205.01" stroke="rgba(0, 0, 0, 1)" stroke-width="1.5"></path><path d="M1307.08 532L1307.08 532" stroke="rgba(0, 0, 0, 1)" stroke-width="1.5"></path><path d="M1307.08 532L1250.88 649.87" stroke="rgba(0, 0, 0, 1)" stroke-width="1.5"></path><path d="M1307.08 532L1451.18 552.07" stroke="rgba(0, 0, 0, 1)" stroke-width="1.5"></path><path d="M1250.88 649.87L1250.88 649.87" stroke="rgba(0, 0, 0, 1)" stroke-width="1.5"></path><path d="M1250.88 649.87L1455.24 710.87" stroke="rgba(0, 0, 0, 1)" stroke-width="1.5"></path><path d="M1438.33 -104.67L1438.33 -104.67" stroke="rgba(0, 0, 0, 1)" stroke-width="1.5"></path><path d="M1438.33 -104.67L1423.79 38.72" stroke="rgba(0, 0, 0, 1)" stroke-width="1.5"></path><path d="M1438.33 -104.67L1607.86 -107.19" stroke="rgba(0, 0, 0, 1)" stroke-width="1.5"></path><path d="M1438.33 -104.67L1551.13 109.99" stroke="rgba(0, 0, 0, 1)" stroke-width="1.5"></path><path d="M1423.79 38.72L1423.79 38.72" stroke="rgba(0, 0, 0, 1)" stroke-width="1.5"></path><path d="M1424.31 205.01L1424.31 205.01" stroke="rgba(0, 0, 0, 1)" stroke-width="1.5"></path><path d="M1424.31 205.01L1453.87 337.88" stroke="rgba(0, 0, 0, 1)" stroke-width="1.5"></path><path d="M1453.87 337.88L1453.87 337.88" stroke="rgba(0, 0, 0, 1)" stroke-width="1.5"></path><path d="M1453.87 337.88L1582.59 398.47" stroke="rgba(0, 0, 0, 1)" stroke-width="1.5"></path><path d="M1453.87 337.88L1581.93 261.22" stroke="rgba(0, 0, 0, 1)" stroke-width="1.5"></path><path d="M1453.87 337.88L1451.18 552.07" stroke="rgba(0, 0, 0, 1)" stroke-width="1.5"></path><path d="M1453.87 337.88L1241.22 252.64" stroke="rgba(0, 0, 0, 1)" stroke-width="1.5"></path><path d="M1451.18 552.07L1451.18 552.07" stroke="rgba(0, 0, 0, 1)" stroke-width="1.5"></path><path d="M1451.18 552.07L1603.6 515.88" stroke="rgba(0, 0, 0, 1)" stroke-width="1.5"></path><path d="M1451.18 552.07L1455.24 710.87" stroke="rgba(0, 0, 0, 1)" stroke-width="1.5"></path><path d="M1455.24 710.87L1455.24 710.87" stroke="rgba(0, 0, 0, 1)" stroke-width="1.5"></path><path d="M1455.24 710.87L1612 695.91" stroke="rgba(0, 0, 0, 1)" stroke-width="1.5"></path><path d="M1455.24 710.87L1307.08 532" stroke="rgba(0, 0, 0, 1)" stroke-width="1.5"></path><path d="M1607.86 -107.19L1607.86 -107.19" stroke="rgba(0, 0, 0, 1)" stroke-width="1.5"></path><path d="M1607.86 -107.19L1551.13 109.99" stroke="rgba(0, 0, 0, 1)" stroke-width="1.5"></path><path d="M1607.86 -107.19L1423.79 38.72" stroke="rgba(0, 0, 0, 1)" stroke-width="1.5"></path><path d="M1607.86 -107.19L1256.33 -65.35" stroke="rgba(0, 0, 0, 1)" stroke-width="1.5"></path><path d="M1551.13 109.99L1551.13 109.99" stroke="rgba(0, 0, 0, 1)" stroke-width="1.5"></path><path d="M1551.13 109.99L1423.79 38.72" stroke="rgba(0, 0, 0, 1)" stroke-width="1.5"></path><path d="M1551.13 109.99L1581.93 261.22" stroke="rgba(0, 0, 0, 1)" stroke-width="1.5"></path><path d="M1551.13 109.99L1424.31 205.01" stroke="rgba(0, 0, 0, 1)" stroke-width="1.5"></path><path d="M1581.93 261.22L1581.93 261.22" stroke="rgba(0, 0, 0, 1)" stroke-width="1.5"></path><path d="M1581.93 261.22L1582.59 398.47" stroke="rgba(0, 0, 0, 1)" stroke-width="1.5"></path><path d="M1581.93 261.22L1424.31 205.01" stroke="rgba(0, 0, 0, 1)" stroke-width="1.5"></path><path d="M1581.93 261.22L1603.6 515.88" stroke="rgba(0, 0, 0, 1)" stroke-width="1.5"></path><path d="M1582.59 398.47L1582.59 398.47" stroke="rgba(0, 0, 0, 1)" stroke-width="1.5"></path><path d="M1582.59 398.47L1603.6 515.88" stroke="rgba(0, 0, 0, 1)" stroke-width="1.5"></path><path d="M1582.59 398.47L1451.18 552.07" stroke="rgba(0, 0, 0, 1)" stroke-width="1.5"></path><path d="M1582.59 398.47L1424.31 205.01" stroke="rgba(0, 0, 0, 1)" stroke-width="1.5"></path><path d="M1582.59 398.47L1294.5 388.3" stroke="rgba(0, 0, 0, 1)" stroke-width="1.5"></path><path d="M1603.6 515.88L1603.6 515.88" stroke="rgba(0, 0, 0, 1)" stroke-width="1.5"></path><path d="M1603.6 515.88L1612 695.91" stroke="rgba(0, 0, 0, 1)" stroke-width="1.5"></path><path d="M1603.6 515.88L1453.87 337.88" stroke="rgba(0, 0, 0, 1)" stroke-width="1.5"></path><path d="M1603.6 515.88L1455.24 710.87" stroke="rgba(0, 0, 0, 1)" stroke-width="1.5"></path><path d="M1612 695.91L1612 695.91" stroke="rgba(0, 0, 0, 1)" stroke-width="1.5"></path><path d="M1612 695.91L1451.18 552.07" stroke="rgba(0, 0, 0, 1)" stroke-width="1.5"></path><circle r="5" cx="-68.5" cy="346.67" fill="rgba(0, 0, 0, 1)"></circle><circle r="5" cx="-106.15" cy="542.44" fill="rgba(0, 0, 0, 1)"></circle><circle r="5" cx="-37.64" cy="710.96" fill="rgba(0, 0, 0, 1)"></circle><circle r="5" cx="38.49" cy="377.87" fill="rgba(0, 0, 0, 1)"></circle><circle r="5" cx="70.51" cy="541.43" fill="rgba(0, 0, 0, 1)"></circle><circle r="5" cx="41.78" cy="684.25" fill="rgba(0, 0, 0, 1)"></circle><circle r="5" cx="207.52" cy="412.22" fill="rgba(0, 0, 0, 1)"></circle><circle r="5" cx="214.8" cy="541.98" fill="rgba(0, 0, 0, 1)"></circle><circle r="5" cx="249.39" cy="703.4" fill="rgba(0, 0, 0, 1)"></circle><circle r="5" cx="409.4" cy="409.61" fill="rgba(0, 0, 0, 1)"></circle><circle r="5" cx="349.94" cy="559.56" fill="rgba(0, 0, 0, 1)"></circle><circle r="5" cx="398.79" cy="704.39" fill="rgba(0, 0, 0, 1)"></circle><circle r="5" cx="552.2" cy="360.13" fill="rgba(0, 0, 0, 1)"></circle><circle r="5" cx="504.19" cy="644.74" fill="rgba(0, 0, 0, 1)"></circle><circle r="5" cx="700.18" cy="245.93" fill="rgba(0, 0, 0, 1)"></circle><circle r="5" cx="639.93" cy="356.71" fill="rgba(0, 0, 0, 1)"></circle><circle r="5" cx="648.72" cy="536.98" fill="rgba(0, 0, 0, 1)"></circle><circle r="5" cx="673.33" cy="674.94" fill="rgba(0, 0, 0, 1)"></circle><circle r="5" cx="793.57" cy="259.76" fill="rgba(0, 0, 0, 1)"></circle><circle r="5" cx="857.35" cy="342.01" fill="rgba(0, 0, 0, 1)"></circle><circle r="5" cx="798.65" cy="492.8" fill="rgba(0, 0, 0, 1)"></circle><circle r="5" cx="848.62" cy="646.89" fill="rgba(0, 0, 0, 1)"></circle><circle r="5" cx="966.54" cy="-37.53" fill="rgba(0, 0, 0, 1)"></circle><circle r="5" cx="951" cy="84.81" fill="rgba(0, 0, 0, 1)"></circle><circle r="5" cx="947.72" cy="236.44" fill="rgba(0, 0, 0, 1)"></circle><circle r="5" cx="941.63" cy="371.15" fill="rgba(0, 0, 0, 1)"></circle><circle r="5" cx="947.43" cy="524.37" fill="rgba(0, 0, 0, 1)"></circle><circle r="5" cx="939.75" cy="662.97" fill="rgba(0, 0, 0, 1)"></circle><circle r="5" cx="1142.16" cy="-69.15" fill="rgba(0, 0, 0, 1)"></circle><circle r="5" cx="1122.76" cy="41.81" fill="rgba(0, 0, 0, 1)"></circle><circle r="5" cx="1146.09" cy="195.75" fill="rgba(0, 0, 0, 1)"></circle><circle r="5" cx="1145.11" cy="352.41" fill="rgba(0, 0, 0, 1)"></circle><circle r="5" cx="1121.13" cy="545.31" fill="rgba(0, 0, 0, 1)"></circle><circle r="5" cx="1099.65" cy="657.54" fill="rgba(0, 0, 0, 1)"></circle><circle r="5" cx="1256.33" cy="-65.35" fill="rgba(0, 0, 0, 1)"></circle><circle r="5" cx="1298.18" cy="104.94" fill="rgba(0, 0, 0, 1)"></circle><circle r="5" cx="1241.22" cy="252.64" fill="rgba(0, 0, 0, 1)"></circle><circle r="5" cx="1294.5" cy="388.3" fill="rgba(0, 0, 0, 1)"></circle><circle r="5" cx="1307.08" cy="532" fill="rgba(0, 0, 0, 1)"></circle><circle r="5" cx="1250.88" cy="649.87" fill="rgba(0, 0, 0, 1)"></circle><circle r="5" cx="1438.33" cy="-104.67" fill="rgba(0, 0, 0, 1)"></circle><circle r="5" cx="1423.79" cy="38.72" fill="rgba(0, 0, 0, 1)"></circle><circle r="5" cx="1424.31" cy="205.01" fill="rgba(0, 0, 0, 1)"></circle><circle r="5" cx="1453.87" cy="337.88" fill="rgba(0, 0, 0, 1)"></circle><circle r="5" cx="1451.18" cy="552.07" fill="rgba(0, 0, 0, 1)"></circle><circle r="5" cx="1455.24" cy="710.87" fill="rgba(0, 0, 0, 1)"></circle><circle r="5" cx="1607.86" cy="-107.19" fill="rgba(0, 0, 0, 1)"></circle><circle r="5" cx="1551.13" cy="109.99" fill="rgba(0, 0, 0, 1)"></circle><circle r="5" cx="1581.93" cy="261.22" fill="rgba(0, 0, 0, 1)"></circle><circle r="5" cx="1582.59" cy="398.47" fill="rgba(0, 0, 0, 1)"></circle><circle r="5" cx="1603.6" cy="515.88" fill="rgba(0, 0, 0, 1)"></circle><circle r="5" cx="1612" cy="695.91" fill="rgba(0, 0, 0, 1)"></circle><path d="M359.15 505.03L359.15 505.03" stroke="hsl(0, 0%, 0%)" stroke-width="1.5"></path><path d="M359.15 505.03L231.06 488.24" stroke="hsl(0, 0%, 0%)" stroke-width="1.5"></path><path d="M857.66 372.02L857.66 372.02" stroke="hsl(0, 0%, 0%)" stroke-width="1.5"></path><path d="M857.66 372.02L839.42 515.72" stroke="hsl(0, 0%, 0%)" stroke-width="1.5"></path><path d="M857.66 372.02L1005.93 383.24" stroke="hsl(0, 0%, 0%)" stroke-width="1.5"></path><path d="M857.66 372.02L997.03 235.39" stroke="hsl(0, 0%, 0%)" stroke-width="1.5"></path><path d="M968.19 657.27L968.19 657.27" stroke="hsl(0, 0%, 0%)" stroke-width="1.5"></path><path d="M968.19 657.27L989.94 526.42" stroke="hsl(0, 0%, 0%)" stroke-width="1.5"></path><path d="M968.19 657.27L829.6 704.91" stroke="hsl(0, 0%, 0%)" stroke-width="1.5"></path><path d="M968.19 657.27L1126.65 687.22" stroke="hsl(0, 0%, 0%)" stroke-width="1.5"></path><path d="M968.19 657.27L839.42 515.72" stroke="hsl(0, 0%, 0%)" stroke-width="1.5"></path><path d="M968.19 657.27L1098.42 487.51" stroke="hsl(0, 0%, 0%)" stroke-width="1.5"></path><path d="M968.19 657.27L696.27 649.04" stroke="hsl(0, 0%, 0%)" stroke-width="1.5"></path><path d="M1154.39 39.66L1154.39 39.66" stroke="hsl(0, 0%, 0%)" stroke-width="1.5"></path><path d="M1154.39 39.66L1156.73 -80.93" stroke="hsl(0, 0%, 0%)" stroke-width="1.5"></path><path d="M1154.39 39.66L1304.97 56.2" stroke="hsl(0, 0%, 0%)" stroke-width="1.5"></path><path d="M1154.39 39.66L1292.19 -39.53" stroke="hsl(0, 0%, 0%)" stroke-width="1.5"></path><path d="M1154.39 39.66L1148.31 245.81" stroke="hsl(0, 0%, 0%)" stroke-width="1.5"></path><path d="M1154.39 39.66L1245.93 227.99" stroke="hsl(0, 0%, 0%)" stroke-width="1.5"></path><path d="M1154.39 39.66L997.03 235.39" stroke="hsl(0, 0%, 0%)" stroke-width="1.5"></path><path d="M1126.65 687.22L1126.65 687.22" stroke="hsl(0, 0%, 0%)" stroke-width="1.5"></path><path d="M1126.65 687.22L1271.48 681.35" stroke="hsl(0, 0%, 0%)" stroke-width="1.5"></path><path d="M1126.65 687.22L1098.42 487.51" stroke="hsl(0, 0%, 0%)" stroke-width="1.5"></path><path d="M1126.65 687.22L989.94 526.42" stroke="hsl(0, 0%, 0%)" stroke-width="1.5"></path><path d="M-104.49 554.81L-104.49 554.81" stroke="hsl(0, 0%, 0%)" stroke-width="1.5"></path><path d="M-104.49 554.81L87.21 525.67" stroke="hsl(0, 0%, 0%)" stroke-width="1.5"></path><path d="M-104.49 554.81L48.97 679.54" stroke="hsl(0, 0%, 0%)" stroke-width="1.5"></path><path d="M-104.49 554.81L200.31 661.8" stroke="hsl(0, 0%, 0%)" stroke-width="1.5"></path><path d="M-104.49 554.81L231.06 488.24" stroke="hsl(0, 0%, 0%)" stroke-width="1.5"></path><path d="M87.21 525.67L87.21 525.67" stroke="hsl(0, 0%, 0%)" stroke-width="1.5"></path><path d="M87.21 525.67L231.06 488.24" stroke="hsl(0, 0%, 0%)" stroke-width="1.5"></path><path d="M87.21 525.67L48.97 679.54" stroke="hsl(0, 0%, 0%)" stroke-width="1.5"></path><path d="M48.97 679.54L48.97 679.54" stroke="hsl(0, 0%, 0%)" stroke-width="1.5"></path><path d="M48.97 679.54L200.31 661.8" stroke="hsl(0, 0%, 0%)" stroke-width="1.5"></path><path d="M48.97 679.54L231.06 488.24" stroke="hsl(0, 0%, 0%)" stroke-width="1.5"></path><path d="M48.97 679.54L359.15 505.03" stroke="hsl(0, 0%, 0%)" stroke-width="1.5"></path><path d="M48.97 679.54L493.97 694.24" stroke="hsl(0, 0%, 0%)" stroke-width="1.5"></path><path d="M231.06 488.24L231.06 488.24" stroke="hsl(0, 0%, 0%)" stroke-width="1.5"></path><path d="M200.31 661.8L200.31 661.8" stroke="hsl(0, 0%, 0%)" stroke-width="1.5"></path><path d="M200.31 661.8L231.06 488.24" stroke="hsl(0, 0%, 0%)" stroke-width="1.5"></path><path d="M200.31 661.8L87.21 525.67" stroke="hsl(0, 0%, 0%)" stroke-width="1.5"></path><path d="M200.31 661.8L359.15 505.03" stroke="hsl(0, 0%, 0%)" stroke-width="1.5"></path><path d="M515.38 508.98L515.38 508.98" stroke="hsl(0, 0%, 0%)" stroke-width="1.5"></path><path d="M515.38 508.98L359.15 505.03" stroke="hsl(0, 0%, 0%)" stroke-width="1.5"></path><path d="M515.38 508.98L669.65 559.02" stroke="hsl(0, 0%, 0%)" stroke-width="1.5"></path><path d="M493.97 694.24L493.97 694.24" stroke="hsl(0, 0%, 0%)" stroke-width="1.5"></path><path d="M493.97 694.24L515.38 508.98" stroke="hsl(0, 0%, 0%)" stroke-width="1.5"></path><path d="M669.65 559.02L669.65 559.02" stroke="hsl(0, 0%, 0%)" stroke-width="1.5"></path><path d="M669.65 559.02L696.27 649.04" stroke="hsl(0, 0%, 0%)" stroke-width="1.5"></path><path d="M669.65 559.02L839.42 515.72" stroke="hsl(0, 0%, 0%)" stroke-width="1.5"></path><path d="M669.65 559.02L829.6 704.91" stroke="hsl(0, 0%, 0%)" stroke-width="1.5"></path><path d="M669.65 559.02L493.97 694.24" stroke="hsl(0, 0%, 0%)" stroke-width="1.5"></path><path d="M669.65 559.02L857.66 372.02" stroke="hsl(0, 0%, 0%)" stroke-width="1.5"></path><path d="M696.27 649.04L696.27 649.04" stroke="hsl(0, 0%, 0%)" stroke-width="1.5"></path><path d="M696.27 649.04L829.6 704.91" stroke="hsl(0, 0%, 0%)" stroke-width="1.5"></path><path d="M696.27 649.04L839.42 515.72" stroke="hsl(0, 0%, 0%)" stroke-width="1.5"></path><path d="M696.27 649.04L493.97 694.24" stroke="hsl(0, 0%, 0%)" stroke-width="1.5"></path><path d="M839.42 515.72L839.42 515.72" stroke="hsl(0, 0%, 0%)" stroke-width="1.5"></path><path d="M839.42 515.72L989.94 526.42" stroke="hsl(0, 0%, 0%)" stroke-width="1.5"></path><path d="M839.42 515.72L829.6 704.91" stroke="hsl(0, 0%, 0%)" stroke-width="1.5"></path><path d="M829.6 704.91L829.6 704.91" stroke="hsl(0, 0%, 0%)" stroke-width="1.5"></path><path d="M997.03 235.39L997.03 235.39" stroke="hsl(0, 0%, 0%)" stroke-width="1.5"></path><path d="M997.03 235.39L1005.93 383.24" stroke="hsl(0, 0%, 0%)" stroke-width="1.5"></path><path d="M997.03 235.39L1148.31 245.81" stroke="hsl(0, 0%, 0%)" stroke-width="1.5"></path><path d="M1005.93 383.24L1005.93 383.24" stroke="hsl(0, 0%, 0%)" stroke-width="1.5"></path><path d="M1005.93 383.24L1098.42 487.51" stroke="hsl(0, 0%, 0%)" stroke-width="1.5"></path><path d="M1005.93 383.24L989.94 526.42" stroke="hsl(0, 0%, 0%)" stroke-width="1.5"></path><path d="M1005.93 383.24L1155.87 393.31" stroke="hsl(0, 0%, 0%)" stroke-width="1.5"></path><path d="M1005.93 383.24L1148.31 245.81" stroke="hsl(0, 0%, 0%)" stroke-width="1.5"></path><path d="M989.94 526.42L989.94 526.42" stroke="hsl(0, 0%, 0%)" stroke-width="1.5"></path><path d="M989.94 526.42L1098.42 487.51" stroke="hsl(0, 0%, 0%)" stroke-width="1.5"></path><path d="M1156.73 -80.93L1156.73 -80.93" stroke="hsl(0, 0%, 0%)" stroke-width="1.5"></path><path d="M1156.73 -80.93L1292.19 -39.53" stroke="hsl(0, 0%, 0%)" stroke-width="1.5"></path><path d="M1156.73 -80.93L1304.97 56.2" stroke="hsl(0, 0%, 0%)" stroke-width="1.5"></path><path d="M1156.73 -80.93L1399.38 -48.7" stroke="hsl(0, 0%, 0%)" stroke-width="1.5"></path><path d="M1156.73 -80.93L1245.93 227.99" stroke="hsl(0, 0%, 0%)" stroke-width="1.5"></path><path d="M1156.73 -80.93L1148.31 245.81" stroke="hsl(0, 0%, 0%)" stroke-width="1.5"></path><path d="M1148.31 245.81L1148.31 245.81" stroke="hsl(0, 0%, 0%)" stroke-width="1.5"></path><path d="M1148.31 245.81L1245.93 227.99" stroke="hsl(0, 0%, 0%)" stroke-width="1.5"></path><path d="M1148.31 245.81L1155.87 393.31" stroke="hsl(0, 0%, 0%)" stroke-width="1.5"></path><path d="M1148.31 245.81L1266.44 398.02" stroke="hsl(0, 0%, 0%)" stroke-width="1.5"></path><path d="M1155.87 393.31L1155.87 393.31" stroke="hsl(0, 0%, 0%)" stroke-width="1.5"></path><path d="M1155.87 393.31L1098.42 487.51" stroke="hsl(0, 0%, 0%)" stroke-width="1.5"></path><path d="M1155.87 393.31L1266.44 398.02" stroke="hsl(0, 0%, 0%)" stroke-width="1.5"></path><path d="M1098.42 487.51L1098.42 487.51" stroke="hsl(0, 0%, 0%)" stroke-width="1.5"></path><path d="M1292.19 -39.53L1292.19 -39.53" stroke="hsl(0, 0%, 0%)" stroke-width="1.5"></path><path d="M1292.19 -39.53L1304.97 56.2" stroke="hsl(0, 0%, 0%)" stroke-width="1.5"></path><path d="M1292.19 -39.53L1399.38 -48.7" stroke="hsl(0, 0%, 0%)" stroke-width="1.5"></path><path d="M1304.97 56.2L1304.97 56.2" stroke="hsl(0, 0%, 0%)" stroke-width="1.5"></path><path d="M1304.97 56.2L1399.38 -48.7" stroke="hsl(0, 0%, 0%)" stroke-width="1.5"></path><path d="M1304.97 56.2L1245.93 227.99" stroke="hsl(0, 0%, 0%)" stroke-width="1.5"></path><path d="M1245.93 227.99L1245.93 227.99" stroke="hsl(0, 0%, 0%)" stroke-width="1.5"></path><path d="M1245.93 227.99L1399.61 258.18" stroke="hsl(0, 0%, 0%)" stroke-width="1.5"></path><path d="M1245.93 227.99L1266.44 398.02" stroke="hsl(0, 0%, 0%)" stroke-width="1.5"></path><path d="M1266.44 398.02L1266.44 398.02" stroke="hsl(0, 0%, 0%)" stroke-width="1.5"></path><path d="M1266.44 398.02L1098.42 487.51" stroke="hsl(0, 0%, 0%)" stroke-width="1.5"></path><path d="M1266.44 398.02L1399.61 258.18" stroke="hsl(0, 0%, 0%)" stroke-width="1.5"></path><path d="M1271.48 681.35L1271.48 681.35" stroke="hsl(0, 0%, 0%)" stroke-width="1.5"></path><path d="M1271.48 681.35L1408.98 644.59" stroke="hsl(0, 0%, 0%)" stroke-width="1.5"></path><path d="M1271.48 681.35L1098.42 487.51" stroke="hsl(0, 0%, 0%)" stroke-width="1.5"></path><path d="M1271.48 681.35L1266.44 398.02" stroke="hsl(0, 0%, 0%)" stroke-width="1.5"></path><path d="M1271.48 681.35L1544.43 552.44" stroke="hsl(0, 0%, 0%)" stroke-width="1.5"></path><path d="M1271.48 681.35L968.19 657.27" stroke="hsl(0, 0%, 0%)" stroke-width="1.5"></path><path d="M1399.38 -48.7L1399.38 -48.7" stroke="hsl(0, 0%, 0%)" stroke-width="1.5"></path><path d="M1399.38 -48.7L1552.15 -54.27" stroke="hsl(0, 0%, 0%)" stroke-width="1.5"></path><path d="M1399.38 -48.7L1541.64 102.48" stroke="hsl(0, 0%, 0%)" stroke-width="1.5"></path><path d="M1399.61 258.18L1399.61 258.18" stroke="hsl(0, 0%, 0%)" stroke-width="1.5"></path><path d="M1399.61 258.18L1458.91 361.25" stroke="hsl(0, 0%, 0%)" stroke-width="1.5"></path><path d="M1399.61 258.18L1575.53 204.11" stroke="hsl(0, 0%, 0%)" stroke-width="1.5"></path><path d="M1399.61 258.18L1541.64 102.48" stroke="hsl(0, 0%, 0%)" stroke-width="1.5"></path><path d="M1399.61 258.18L1304.97 56.2" stroke="hsl(0, 0%, 0%)" stroke-width="1.5"></path><path d="M1458.91 361.25L1458.91 361.25" stroke="hsl(0, 0%, 0%)" stroke-width="1.5"></path><path d="M1458.91 361.25L1575.53 204.11" stroke="hsl(0, 0%, 0%)" stroke-width="1.5"></path><path d="M1408.98 644.59L1408.98 644.59" stroke="hsl(0, 0%, 0%)" stroke-width="1.5"></path><path d="M1408.98 644.59L1544.43 552.44" stroke="hsl(0, 0%, 0%)" stroke-width="1.5"></path><path d="M1408.98 644.59L1266.44 398.02" stroke="hsl(0, 0%, 0%)" stroke-width="1.5"></path><path d="M1408.98 644.59L1126.65 687.22" stroke="hsl(0, 0%, 0%)" stroke-width="1.5"></path><path d="M1552.15 -54.27L1552.15 -54.27" stroke="hsl(0, 0%, 0%)" stroke-width="1.5"></path><path d="M1552.15 -54.27L1541.64 102.48" stroke="hsl(0, 0%, 0%)" stroke-width="1.5"></path><path d="M1541.64 102.48L1541.64 102.48" stroke="hsl(0, 0%, 0%)" stroke-width="1.5"></path><path d="M1541.64 102.48L1575.53 204.11" stroke="hsl(0, 0%, 0%)" stroke-width="1.5"></path><path d="M1575.53 204.11L1575.53 204.11" stroke="hsl(0, 0%, 0%)" stroke-width="1.5"></path><path d="M1575.53 204.11L1552.15 -54.27" stroke="hsl(0, 0%, 0%)" stroke-width="1.5"></path><path d="M1544.43 552.44L1544.43 552.44" stroke="hsl(0, 0%, 0%)" stroke-width="1.5"></path><path d="M1544.43 552.44L1458.91 361.25" stroke="hsl(0, 0%, 0%)" stroke-width="1.5"></path><path d="M1544.43 552.44L1266.44 398.02" stroke="hsl(0, 0%, 0%)" stroke-width="1.5"></path><path d="M1544.43 552.44L1399.61 258.18" stroke="hsl(0, 0%, 0%)" stroke-width="1.5"></path><circle r="25" cx="359.15" cy="505.03" fill="url(#SvgjsRadialGradient1035)"></circle><circle r="25" cx="857.66" cy="372.02" fill="url(#SvgjsRadialGradient1035)"></circle><circle r="25" cx="968.19" cy="657.27" fill="url(#SvgjsRadialGradient1035)"></circle><circle r="25" cx="1154.39" cy="39.66" fill="url(#SvgjsRadialGradient1035)"></circle><circle r="25" cx="1126.65" cy="687.22" fill="url(#SvgjsRadialGradient1035)"></circle><circle r="5" cx="-104.49" cy="554.81" fill="#808080"></circle><circle r="5" cx="87.21" cy="525.67" fill="#808080"></circle><circle r="5" cx="48.97" cy="679.54" fill="#808080"></circle><circle r="5" cx="231.06" cy="488.24" fill="#808080"></circle><circle r="5" cx="200.31" cy="661.8" fill="#808080"></circle><circle r="5" cx="515.38" cy="508.98" fill="#808080"></circle><circle r="5" cx="493.97" cy="694.24" fill="#808080"></circle><circle r="5" cx="669.65" cy="559.02" fill="#808080"></circle><circle r="5" cx="696.27" cy="649.04" fill="#808080"></circle><circle r="5" cx="839.42" cy="515.72" fill="#808080"></circle><circle r="5" cx="829.6" cy="704.91" fill="#808080"></circle><circle r="5" cx="997.03" cy="235.39" fill="#808080"></circle><circle r="5" cx="1005.93" cy="383.24" fill="#808080"></circle><circle r="5" cx="989.94" cy="526.42" fill="#808080"></circle><circle r="5" cx="1156.73" cy="-80.93" fill="#808080"></circle><circle r="5" cx="1148.31" cy="245.81" fill="#808080"></circle><circle r="5" cx="1155.87" cy="393.31" fill="#808080"></circle><circle r="5" cx="1098.42" cy="487.51" fill="#808080"></circle><circle r="5" cx="1292.19" cy="-39.53" fill="#808080"></circle><circle r="5" cx="1304.97" cy="56.2" fill="#808080"></circle><circle r="5" cx="1245.93" cy="227.99" fill="#808080"></circle><circle r="5" cx="1266.44" cy="398.02" fill="#808080"></circle><circle r="5" cx="1271.48" cy="681.35" fill="#808080"></circle><circle r="5" cx="1399.38" cy="-48.7" fill="#808080"></circle><circle r="5" cx="1399.61" cy="258.18" fill="#808080"></circle><circle r="5" cx="1458.91" cy="361.25" fill="#808080"></circle><circle r="5" cx="1408.98" cy="644.59" fill="#808080"></circle><circle r="5" cx="1552.15" cy="-54.27" fill="#808080"></circle><circle r="5" cx="1541.64" cy="102.48" fill="#808080"></circle><circle r="5" cx="1575.53" cy="204.11" fill="#808080"></circle><circle r="5" cx="1544.43" cy="552.44" fill="#808080"></circle></g><defs><mask id="SvgjsMask1034"><rect width="1440" height="560" fill="#ffffff"></rect></mask><radialGradient id="SvgjsRadialGradient1035"><stop stop-color="#ffffff" offset="0.1"></stop><stop stop-color="rgba(0, 0, 0, 1)" offset="0.2"></stop><stop stop-color="rgba(0, 0, 0, 0)" offset="1"></stop></radialGradient></defs></svg>