<svg xmlns="http://www.w3.org/2000/svg" version="1.1" xmlns:xlink="http://www.w3.org/1999/xlink" xmlns:svgjs="http://svgjs.com/svgjs" width="1440" height="560" preserveAspectRatio="none" viewBox="0 0 1440 560"><g mask="url(&quot;#SvgjsMask1008&quot;)" fill="none"><rect width="1440" height="560" x="0" y="0" fill="rgba(33, 37, 41, 1)"></rect><path d="M-62.64 380.35L-62.64 380.35" stroke="rgba(40, 167, 69, 1)" stroke-width="1.5"></path><path d="M-62.64 380.35L58.3 406.32" stroke="rgba(40, 167, 69, 1)" stroke-width="1.5"></path><path d="M-62.64 380.35L-99.67 506.63" stroke="rgba(40, 167, 69, 1)" stroke-width="1.5"></path><path d="M-62.64 380.35L76.08 518.89" stroke="rgba(40, 167, 69, 1)" stroke-width="1.5"></path><path d="M-62.64 380.35L217 406.81" stroke="rgba(40, 167, 69, 1)" stroke-width="1.5"></path><path d="M-62.64 380.35L74.37 659.87" stroke="rgba(40, 167, 69, 1)" stroke-width="1.5"></path><path d="M-99.67 506.63L-99.67 506.63" stroke="rgba(40, 167, 69, 1)" stroke-width="1.5"></path><path d="M-99.67 506.63L76.08 518.89" stroke="rgba(40, 167, 69, 1)" stroke-width="1.5"></path><path d="M-99.67 506.63L58.3 406.32" stroke="rgba(40, 167, 69, 1)" stroke-width="1.5"></path><path d="M-99.67 506.63L74.37 659.87" stroke="rgba(40, 167, 69, 1)" stroke-width="1.5"></path><path d="M-99.67 506.63L217 406.81" stroke="rgba(40, 167, 69, 1)" stroke-width="1.5"></path><path d="M58.3 406.32L58.3 406.32" stroke="rgba(40, 167, 69, 1)" stroke-width="1.5"></path><path d="M58.3 406.32L76.08 518.89" stroke="rgba(40, 167, 69, 1)" stroke-width="1.5"></path><path d="M58.3 406.32L217 406.81" stroke="rgba(40, 167, 69, 1)" stroke-width="1.5"></path><path d="M76.08 518.89L76.08 518.89" stroke="rgba(40, 167, 69, 1)" stroke-width="1.5"></path><path d="M76.08 518.89L74.37 659.87" stroke="rgba(40, 167, 69, 1)" stroke-width="1.5"></path><path d="M76.08 518.89L234.13 515.35" stroke="rgba(40, 167, 69, 1)" stroke-width="1.5"></path><path d="M76.08 518.89L217 406.81" stroke="rgba(40, 167, 69, 1)" stroke-width="1.5"></path><path d="M74.37 659.87L74.37 659.87" stroke="rgba(40, 167, 69, 1)" stroke-width="1.5"></path><path d="M74.37 659.87L238.48 691.48" stroke="rgba(40, 167, 69, 1)" stroke-width="1.5"></path><path d="M217 406.81L217 406.81" stroke="rgba(40, 167, 69, 1)" stroke-width="1.5"></path><path d="M217 406.81L234.13 515.35" stroke="rgba(40, 167, 69, 1)" stroke-width="1.5"></path><path d="M217 406.81L392.57 353.39" stroke="rgba(40, 167, 69, 1)" stroke-width="1.5"></path><path d="M217 406.81L390.9 553.35" stroke="rgba(40, 167, 69, 1)" stroke-width="1.5"></path><path d="M217 406.81L344.52 644.29" stroke="rgba(40, 167, 69, 1)" stroke-width="1.5"></path><path d="M234.13 515.35L234.13 515.35" stroke="rgba(40, 167, 69, 1)" stroke-width="1.5"></path><path d="M234.13 515.35L390.9 553.35" stroke="rgba(40, 167, 69, 1)" stroke-width="1.5"></path><path d="M234.13 515.35L344.52 644.29" stroke="rgba(40, 167, 69, 1)" stroke-width="1.5"></path><path d="M234.13 515.35L238.48 691.48" stroke="rgba(40, 167, 69, 1)" stroke-width="1.5"></path><path d="M234.13 515.35L58.3 406.32" stroke="rgba(40, 167, 69, 1)" stroke-width="1.5"></path><path d="M238.48 691.48L238.48 691.48" stroke="rgba(40, 167, 69, 1)" stroke-width="1.5"></path><path d="M238.48 691.48L344.52 644.29" stroke="rgba(40, 167, 69, 1)" stroke-width="1.5"></path><path d="M392.57 353.39L392.57 353.39" stroke="rgba(40, 167, 69, 1)" stroke-width="1.5"></path><path d="M392.57 353.39L533.58 372.98" stroke="rgba(40, 167, 69, 1)" stroke-width="1.5"></path><path d="M392.57 353.39L390.9 553.35" stroke="rgba(40, 167, 69, 1)" stroke-width="1.5"></path><path d="M392.57 353.39L234.13 515.35" stroke="rgba(40, 167, 69, 1)" stroke-width="1.5"></path><path d="M390.9 553.35L390.9 553.35" stroke="rgba(40, 167, 69, 1)" stroke-width="1.5"></path><path d="M390.9 553.35L344.52 644.29" stroke="rgba(40, 167, 69, 1)" stroke-width="1.5"></path><path d="M390.9 553.35L561.07 560.65" stroke="rgba(40, 167, 69, 1)" stroke-width="1.5"></path><path d="M390.9 553.35L510.81 678.05" stroke="rgba(40, 167, 69, 1)" stroke-width="1.5"></path><path d="M390.9 553.35L238.48 691.48" stroke="rgba(40, 167, 69, 1)" stroke-width="1.5"></path><path d="M344.52 644.29L344.52 644.29" stroke="rgba(40, 167, 69, 1)" stroke-width="1.5"></path><path d="M344.52 644.29L510.81 678.05" stroke="rgba(40, 167, 69, 1)" stroke-width="1.5"></path><path d="M344.52 644.29L561.07 560.65" stroke="rgba(40, 167, 69, 1)" stroke-width="1.5"></path><path d="M533.58 372.98L533.58 372.98" stroke="rgba(40, 167, 69, 1)" stroke-width="1.5"></path><path d="M533.58 372.98L666.06 357.54" stroke="rgba(40, 167, 69, 1)" stroke-width="1.5"></path><path d="M533.58 372.98L561.07 560.65" stroke="rgba(40, 167, 69, 1)" stroke-width="1.5"></path><path d="M533.58 372.98L652.6 552.94" stroke="rgba(40, 167, 69, 1)" stroke-width="1.5"></path><path d="M561.07 560.65L561.07 560.65" stroke="rgba(40, 167, 69, 1)" stroke-width="1.5"></path><path d="M561.07 560.65L652.6 552.94" stroke="rgba(40, 167, 69, 1)" stroke-width="1.5"></path><path d="M510.81 678.05L510.81 678.05" stroke="rgba(40, 167, 69, 1)" stroke-width="1.5"></path><path d="M510.81 678.05L561.07 560.65" stroke="rgba(40, 167, 69, 1)" stroke-width="1.5"></path><path d="M510.81 678.05L647.17 669.73" stroke="rgba(40, 167, 69, 1)" stroke-width="1.5"></path><path d="M510.81 678.05L652.6 552.94" stroke="rgba(40, 167, 69, 1)" stroke-width="1.5"></path><path d="M510.81 678.05L238.48 691.48" stroke="rgba(40, 167, 69, 1)" stroke-width="1.5"></path><path d="M666.06 357.54L666.06 357.54" stroke="rgba(40, 167, 69, 1)" stroke-width="1.5"></path><path d="M666.06 357.54L832.97 392.45" stroke="rgba(40, 167, 69, 1)" stroke-width="1.5"></path><path d="M666.06 357.54L652.6 552.94" stroke="rgba(40, 167, 69, 1)" stroke-width="1.5"></path><path d="M666.06 357.54L841.23 256.37" stroke="rgba(40, 167, 69, 1)" stroke-width="1.5"></path><path d="M666.06 357.54L818.9 520.37" stroke="rgba(40, 167, 69, 1)" stroke-width="1.5"></path><path d="M666.06 357.54L561.07 560.65" stroke="rgba(40, 167, 69, 1)" stroke-width="1.5"></path><path d="M652.6 552.94L652.6 552.94" stroke="rgba(40, 167, 69, 1)" stroke-width="1.5"></path><path d="M652.6 552.94L647.17 669.73" stroke="rgba(40, 167, 69, 1)" stroke-width="1.5"></path><path d="M652.6 552.94L818.9 520.37" stroke="rgba(40, 167, 69, 1)" stroke-width="1.5"></path><path d="M652.6 552.94L797.81 681.59" stroke="rgba(40, 167, 69, 1)" stroke-width="1.5"></path><path d="M647.17 669.73L647.17 669.73" stroke="rgba(40, 167, 69, 1)" stroke-width="1.5"></path><path d="M647.17 669.73L561.07 560.65" stroke="rgba(40, 167, 69, 1)" stroke-width="1.5"></path><path d="M647.17 669.73L797.81 681.59" stroke="rgba(40, 167, 69, 1)" stroke-width="1.5"></path><path d="M647.17 669.73L818.9 520.37" stroke="rgba(40, 167, 69, 1)" stroke-width="1.5"></path><path d="M850.92 72.65L850.92 72.65" stroke="rgba(40, 167, 69, 1)" stroke-width="1.5"></path><path d="M850.92 72.65L941.61 91.43" stroke="rgba(40, 167, 69, 1)" stroke-width="1.5"></path><path d="M850.92 72.65L841.23 256.37" stroke="rgba(40, 167, 69, 1)" stroke-width="1.5"></path><path d="M850.92 72.65L967.52 -91.43" stroke="rgba(40, 167, 69, 1)" stroke-width="1.5"></path><path d="M850.92 72.65L984.08 249.46" stroke="rgba(40, 167, 69, 1)" stroke-width="1.5"></path><path d="M850.92 72.65L1116.5 78.76" stroke="rgba(40, 167, 69, 1)" stroke-width="1.5"></path><path d="M841.23 256.37L841.23 256.37" stroke="rgba(40, 167, 69, 1)" stroke-width="1.5"></path><path d="M841.23 256.37L832.97 392.45" stroke="rgba(40, 167, 69, 1)" stroke-width="1.5"></path><path d="M841.23 256.37L984.08 249.46" stroke="rgba(40, 167, 69, 1)" stroke-width="1.5"></path><path d="M832.97 392.45L832.97 392.45" stroke="rgba(40, 167, 69, 1)" stroke-width="1.5"></path><path d="M832.97 392.45L818.9 520.37" stroke="rgba(40, 167, 69, 1)" stroke-width="1.5"></path><path d="M832.97 392.45L982.97 384.64" stroke="rgba(40, 167, 69, 1)" stroke-width="1.5"></path><path d="M818.9 520.37L818.9 520.37" stroke="rgba(40, 167, 69, 1)" stroke-width="1.5"></path><path d="M818.9 520.37L945.14 503.89" stroke="rgba(40, 167, 69, 1)" stroke-width="1.5"></path><path d="M818.9 520.37L797.81 681.59" stroke="rgba(40, 167, 69, 1)" stroke-width="1.5"></path><path d="M797.81 681.59L797.81 681.59" stroke="rgba(40, 167, 69, 1)" stroke-width="1.5"></path><path d="M797.81 681.59L945.14 503.89" stroke="rgba(40, 167, 69, 1)" stroke-width="1.5"></path><path d="M797.81 681.59L561.07 560.65" stroke="rgba(40, 167, 69, 1)" stroke-width="1.5"></path><path d="M967.52 -91.43L967.52 -91.43" stroke="rgba(40, 167, 69, 1)" stroke-width="1.5"></path><path d="M967.52 -91.43L1132.23 -59.56" stroke="rgba(40, 167, 69, 1)" stroke-width="1.5"></path><path d="M967.52 -91.43L941.61 91.43" stroke="rgba(40, 167, 69, 1)" stroke-width="1.5"></path><path d="M967.52 -91.43L1116.5 78.76" stroke="rgba(40, 167, 69, 1)" stroke-width="1.5"></path><path d="M941.61 91.43L941.61 91.43" stroke="rgba(40, 167, 69, 1)" stroke-width="1.5"></path><path d="M941.61 91.43L984.08 249.46" stroke="rgba(40, 167, 69, 1)" stroke-width="1.5"></path><path d="M941.61 91.43L1116.5 78.76" stroke="rgba(40, 167, 69, 1)" stroke-width="1.5"></path><path d="M984.08 249.46L984.08 249.46" stroke="rgba(40, 167, 69, 1)" stroke-width="1.5"></path><path d="M984.08 249.46L1109.9 221.18" stroke="rgba(40, 167, 69, 1)" stroke-width="1.5"></path><path d="M984.08 249.46L982.97 384.64" stroke="rgba(40, 167, 69, 1)" stroke-width="1.5"></path><path d="M982.97 384.64L982.97 384.64" stroke="rgba(40, 167, 69, 1)" stroke-width="1.5"></path><path d="M982.97 384.64L1105.68 382.96" stroke="rgba(40, 167, 69, 1)" stroke-width="1.5"></path><path d="M982.97 384.64L945.14 503.89" stroke="rgba(40, 167, 69, 1)" stroke-width="1.5"></path><path d="M945.14 503.89L945.14 503.89" stroke="rgba(40, 167, 69, 1)" stroke-width="1.5"></path><path d="M1132.23 -59.56L1132.23 -59.56" stroke="rgba(40, 167, 69, 1)" stroke-width="1.5"></path><path d="M1132.23 -59.56L1116.5 78.76" stroke="rgba(40, 167, 69, 1)" stroke-width="1.5"></path><path d="M1132.23 -59.56L1305.02 -92.49" stroke="rgba(40, 167, 69, 1)" stroke-width="1.5"></path><path d="M1116.5 78.76L1116.5 78.76" stroke="rgba(40, 167, 69, 1)" stroke-width="1.5"></path><path d="M1116.5 78.76L1109.9 221.18" stroke="rgba(40, 167, 69, 1)" stroke-width="1.5"></path><path d="M1109.9 221.18L1109.9 221.18" stroke="rgba(40, 167, 69, 1)" stroke-width="1.5"></path><path d="M1105.68 382.96L1105.68 382.96" stroke="rgba(40, 167, 69, 1)" stroke-width="1.5"></path><path d="M1105.68 382.96L1109.9 221.18" stroke="rgba(40, 167, 69, 1)" stroke-width="1.5"></path><path d="M1105.68 382.96L1282.89 409.8" stroke="rgba(40, 167, 69, 1)" stroke-width="1.5"></path><path d="M1105.68 382.96L984.08 249.46" stroke="rgba(40, 167, 69, 1)" stroke-width="1.5"></path><path d="M1150.47 674.25L1150.47 674.25" stroke="rgba(40, 167, 69, 1)" stroke-width="1.5"></path><path d="M1150.47 674.25L945.14 503.89" stroke="rgba(40, 167, 69, 1)" stroke-width="1.5"></path><path d="M1150.47 674.25L1105.68 382.96" stroke="rgba(40, 167, 69, 1)" stroke-width="1.5"></path><path d="M1150.47 674.25L1282.89 409.8" stroke="rgba(40, 167, 69, 1)" stroke-width="1.5"></path><path d="M1150.47 674.25L1453.33 704.33" stroke="rgba(40, 167, 69, 1)" stroke-width="1.5"></path><path d="M1150.47 674.25L1433.36 496.95" stroke="rgba(40, 167, 69, 1)" stroke-width="1.5"></path><path d="M1305.02 -92.49L1305.02 -92.49" stroke="rgba(40, 167, 69, 1)" stroke-width="1.5"></path><path d="M1305.02 -92.49L1294.37 62.17" stroke="rgba(40, 167, 69, 1)" stroke-width="1.5"></path><path d="M1305.02 -92.49L1396.97 97.31" stroke="rgba(40, 167, 69, 1)" stroke-width="1.5"></path><path d="M1294.37 62.17L1294.37 62.17" stroke="rgba(40, 167, 69, 1)" stroke-width="1.5"></path><path d="M1294.37 62.17L1396.97 97.31" stroke="rgba(40, 167, 69, 1)" stroke-width="1.5"></path><path d="M1294.37 62.17L1272.15 190.64" stroke="rgba(40, 167, 69, 1)" stroke-width="1.5"></path><path d="M1272.15 190.64L1272.15 190.64" stroke="rgba(40, 167, 69, 1)" stroke-width="1.5"></path><path d="M1272.15 190.64L1396.97 97.31" stroke="rgba(40, 167, 69, 1)" stroke-width="1.5"></path><path d="M1272.15 190.64L1109.9 221.18" stroke="rgba(40, 167, 69, 1)" stroke-width="1.5"></path><path d="M1272.15 190.64L1439.34 197.14" stroke="rgba(40, 167, 69, 1)" stroke-width="1.5"></path><path d="M1272.15 190.64L1116.5 78.76" stroke="rgba(40, 167, 69, 1)" stroke-width="1.5"></path><path d="M1272.15 190.64L1282.89 409.8" stroke="rgba(40, 167, 69, 1)" stroke-width="1.5"></path><path d="M1282.89 409.8L1282.89 409.8" stroke="rgba(40, 167, 69, 1)" stroke-width="1.5"></path><path d="M1282.89 409.8L1417.18 371.1" stroke="rgba(40, 167, 69, 1)" stroke-width="1.5"></path><path d="M1282.89 409.8L1433.36 496.95" stroke="rgba(40, 167, 69, 1)" stroke-width="1.5"></path><path d="M1282.89 409.8L1109.9 221.18" stroke="rgba(40, 167, 69, 1)" stroke-width="1.5"></path><path d="M1282.89 409.8L1439.34 197.14" stroke="rgba(40, 167, 69, 1)" stroke-width="1.5"></path><path d="M1396.97 97.31L1396.97 97.31" stroke="rgba(40, 167, 69, 1)" stroke-width="1.5"></path><path d="M1396.97 97.31L1439.34 197.14" stroke="rgba(40, 167, 69, 1)" stroke-width="1.5"></path><path d="M1439.34 197.14L1439.34 197.14" stroke="rgba(40, 167, 69, 1)" stroke-width="1.5"></path><path d="M1439.34 197.14L1584.83 209.06" stroke="rgba(40, 167, 69, 1)" stroke-width="1.5"></path><path d="M1439.34 197.14L1417.18 371.1" stroke="rgba(40, 167, 69, 1)" stroke-width="1.5"></path><path d="M1439.34 197.14L1547.14 356.84" stroke="rgba(40, 167, 69, 1)" stroke-width="1.5"></path><path d="M1439.34 197.14L1294.37 62.17" stroke="rgba(40, 167, 69, 1)" stroke-width="1.5"></path><path d="M1417.18 371.1L1417.18 371.1" stroke="rgba(40, 167, 69, 1)" stroke-width="1.5"></path><path d="M1417.18 371.1L1433.36 496.95" stroke="rgba(40, 167, 69, 1)" stroke-width="1.5"></path><path d="M1417.18 371.1L1547.14 356.84" stroke="rgba(40, 167, 69, 1)" stroke-width="1.5"></path><path d="M1433.36 496.95L1433.36 496.95" stroke="rgba(40, 167, 69, 1)" stroke-width="1.5"></path><path d="M1433.36 496.95L1569.58 509.24" stroke="rgba(40, 167, 69, 1)" stroke-width="1.5"></path><path d="M1453.33 704.33L1453.33 704.33" stroke="rgba(40, 167, 69, 1)" stroke-width="1.5"></path><path d="M1453.33 704.33L1607.12 692.36" stroke="rgba(40, 167, 69, 1)" stroke-width="1.5"></path><path d="M1453.33 704.33L1433.36 496.95" stroke="rgba(40, 167, 69, 1)" stroke-width="1.5"></path><path d="M1453.33 704.33L1569.58 509.24" stroke="rgba(40, 167, 69, 1)" stroke-width="1.5"></path><path d="M1453.33 704.33L1417.18 371.1" stroke="rgba(40, 167, 69, 1)" stroke-width="1.5"></path><path d="M1558.77 -58.55L1558.77 -58.55" stroke="rgba(40, 167, 69, 1)" stroke-width="1.5"></path><path d="M1558.77 -58.55L1609.71 48.5" stroke="rgba(40, 167, 69, 1)" stroke-width="1.5"></path><path d="M1558.77 -58.55L1396.97 97.31" stroke="rgba(40, 167, 69, 1)" stroke-width="1.5"></path><path d="M1558.77 -58.55L1305.02 -92.49" stroke="rgba(40, 167, 69, 1)" stroke-width="1.5"></path><path d="M1558.77 -58.55L1584.83 209.06" stroke="rgba(40, 167, 69, 1)" stroke-width="1.5"></path><path d="M1558.77 -58.55L1439.34 197.14" stroke="rgba(40, 167, 69, 1)" stroke-width="1.5"></path><path d="M1558.77 -58.55L1294.37 62.17" stroke="rgba(40, 167, 69, 1)" stroke-width="1.5"></path><path d="M1609.71 48.5L1609.71 48.5" stroke="rgba(40, 167, 69, 1)" stroke-width="1.5"></path><path d="M1609.71 48.5L1584.83 209.06" stroke="rgba(40, 167, 69, 1)" stroke-width="1.5"></path><path d="M1609.71 48.5L1396.97 97.31" stroke="rgba(40, 167, 69, 1)" stroke-width="1.5"></path><path d="M1609.71 48.5L1439.34 197.14" stroke="rgba(40, 167, 69, 1)" stroke-width="1.5"></path><path d="M1609.71 48.5L1547.14 356.84" stroke="rgba(40, 167, 69, 1)" stroke-width="1.5"></path><path d="M1609.71 48.5L1294.37 62.17" stroke="rgba(40, 167, 69, 1)" stroke-width="1.5"></path><path d="M1584.83 209.06L1584.83 209.06" stroke="rgba(40, 167, 69, 1)" stroke-width="1.5"></path><path d="M1584.83 209.06L1547.14 356.84" stroke="rgba(40, 167, 69, 1)" stroke-width="1.5"></path><path d="M1584.83 209.06L1396.97 97.31" stroke="rgba(40, 167, 69, 1)" stroke-width="1.5"></path><path d="M1547.14 356.84L1547.14 356.84" stroke="rgba(40, 167, 69, 1)" stroke-width="1.5"></path><path d="M1547.14 356.84L1569.58 509.24" stroke="rgba(40, 167, 69, 1)" stroke-width="1.5"></path><path d="M1547.14 356.84L1433.36 496.95" stroke="rgba(40, 167, 69, 1)" stroke-width="1.5"></path><path d="M1569.58 509.24L1569.58 509.24" stroke="rgba(40, 167, 69, 1)" stroke-width="1.5"></path><path d="M1607.12 692.36L1607.12 692.36" stroke="rgba(40, 167, 69, 1)" stroke-width="1.5"></path><path d="M1607.12 692.36L1569.58 509.24" stroke="rgba(40, 167, 69, 1)" stroke-width="1.5"></path><path d="M1607.12 692.36L1433.36 496.95" stroke="rgba(40, 167, 69, 1)" stroke-width="1.5"></path><path d="M1607.12 692.36L1547.14 356.84" stroke="rgba(40, 167, 69, 1)" stroke-width="1.5"></path><circle r="5" cx="-62.64" cy="380.35" fill="rgba(40, 167, 69, 1)"></circle><circle r="5" cx="-99.67" cy="506.63" fill="rgba(40, 167, 69, 1)"></circle><circle r="5" cx="58.3" cy="406.32" fill="rgba(40, 167, 69, 1)"></circle><circle r="5" cx="76.08" cy="518.89" fill="rgba(40, 167, 69, 1)"></circle><circle r="5" cx="74.37" cy="659.87" fill="rgba(40, 167, 69, 1)"></circle><circle r="5" cx="217" cy="406.81" fill="rgba(40, 167, 69, 1)"></circle><circle r="5" cx="234.13" cy="515.35" fill="rgba(40, 167, 69, 1)"></circle><circle r="5" cx="238.48" cy="691.48" fill="rgba(40, 167, 69, 1)"></circle><circle r="5" cx="392.57" cy="353.39" fill="rgba(40, 167, 69, 1)"></circle><circle r="5" cx="390.9" cy="553.35" fill="rgba(40, 167, 69, 1)"></circle><circle r="5" cx="344.52" cy="644.29" fill="rgba(40, 167, 69, 1)"></circle><circle r="5" cx="533.58" cy="372.98" fill="rgba(40, 167, 69, 1)"></circle><circle r="5" cx="561.07" cy="560.65" fill="rgba(40, 167, 69, 1)"></circle><circle r="5" cx="510.81" cy="678.05" fill="rgba(40, 167, 69, 1)"></circle><circle r="5" cx="666.06" cy="357.54" fill="rgba(40, 167, 69, 1)"></circle><circle r="5" cx="652.6" cy="552.94" fill="rgba(40, 167, 69, 1)"></circle><circle r="5" cx="647.17" cy="669.73" fill="rgba(40, 167, 69, 1)"></circle><circle r="5" cx="850.92" cy="72.65" fill="rgba(40, 167, 69, 1)"></circle><circle r="5" cx="841.23" cy="256.37" fill="rgba(40, 167, 69, 1)"></circle><circle r="5" cx="832.97" cy="392.45" fill="rgba(40, 167, 69, 1)"></circle><circle r="5" cx="818.9" cy="520.37" fill="rgba(40, 167, 69, 1)"></circle><circle r="5" cx="797.81" cy="681.59" fill="rgba(40, 167, 69, 1)"></circle><circle r="5" cx="967.52" cy="-91.43" fill="rgba(40, 167, 69, 1)"></circle><circle r="5" cx="941.61" cy="91.43" fill="rgba(40, 167, 69, 1)"></circle><circle r="5" cx="984.08" cy="249.46" fill="rgba(40, 167, 69, 1)"></circle><circle r="5" cx="982.97" cy="384.64" fill="rgba(40, 167, 69, 1)"></circle><circle r="5" cx="945.14" cy="503.89" fill="rgba(40, 167, 69, 1)"></circle><circle r="5" cx="1132.23" cy="-59.56" fill="rgba(40, 167, 69, 1)"></circle><circle r="5" cx="1116.5" cy="78.76" fill="rgba(40, 167, 69, 1)"></circle><circle r="5" cx="1109.9" cy="221.18" fill="rgba(40, 167, 69, 1)"></circle><circle r="5" cx="1105.68" cy="382.96" fill="rgba(40, 167, 69, 1)"></circle><circle r="5" cx="1150.47" cy="674.25" fill="rgba(40, 167, 69, 1)"></circle><circle r="5" cx="1305.02" cy="-92.49" fill="rgba(40, 167, 69, 1)"></circle><circle r="5" cx="1294.37" cy="62.17" fill="rgba(40, 167, 69, 1)"></circle><circle r="5" cx="1272.15" cy="190.64" fill="rgba(40, 167, 69, 1)"></circle><circle r="5" cx="1282.89" cy="409.8" fill="rgba(40, 167, 69, 1)"></circle><circle r="5" cx="1396.97" cy="97.31" fill="rgba(40, 167, 69, 1)"></circle><circle r="5" cx="1439.34" cy="197.14" fill="rgba(40, 167, 69, 1)"></circle><circle r="5" cx="1417.18" cy="371.1" fill="rgba(40, 167, 69, 1)"></circle><circle r="5" cx="1433.36" cy="496.95" fill="rgba(40, 167, 69, 1)"></circle><circle r="5" cx="1453.33" cy="704.33" fill="rgba(40, 167, 69, 1)"></circle><circle r="5" cx="1558.77" cy="-58.55" fill="rgba(40, 167, 69, 1)"></circle><circle r="5" cx="1609.71" cy="48.5" fill="rgba(40, 167, 69, 1)"></circle><circle r="5" cx="1584.83" cy="209.06" fill="rgba(40, 167, 69, 1)"></circle><circle r="5" cx="1547.14" cy="356.84" fill="rgba(40, 167, 69, 1)"></circle><circle r="5" cx="1569.58" cy="509.24" fill="rgba(40, 167, 69, 1)"></circle><circle r="5" cx="1607.12" cy="692.36" fill="rgba(40, 167, 69, 1)"></circle><path d="M238.84 504.99L238.84 504.99" stroke="hsl(133.7, 61.4%, 52.8%)" stroke-width="1.5"></path><path d="M238.84 504.99L100.43 545.43" stroke="hsl(133.7, 61.4%, 52.8%)" stroke-width="1.5"></path><path d="M238.84 504.99L386.59 504.34" stroke="hsl(133.7, 61.4%, 52.8%)" stroke-width="1.5"></path><path d="M528.84 529.84L528.84 529.84" stroke="hsl(133.7, 61.4%, 52.8%)" stroke-width="1.5"></path><path d="M528.84 529.84L660.51 514.6" stroke="hsl(133.7, 61.4%, 52.8%)" stroke-width="1.5"></path><path d="M528.84 529.84L386.59 504.34" stroke="hsl(133.7, 61.4%, 52.8%)" stroke-width="1.5"></path><path d="M821.8 363.64L821.8 363.64" stroke="hsl(133.7, 61.4%, 52.8%)" stroke-width="1.5"></path><path d="M821.8 363.64L938.48 338.98" stroke="hsl(133.7, 61.4%, 52.8%)" stroke-width="1.5"></path><path d="M821.8 363.64L692.41 392.94" stroke="hsl(133.7, 61.4%, 52.8%)" stroke-width="1.5"></path><path d="M938.48 338.98L938.48 338.98" stroke="hsl(133.7, 61.4%, 52.8%)" stroke-width="1.5"></path><path d="M938.48 338.98L982.27 258.98" stroke="hsl(133.7, 61.4%, 52.8%)" stroke-width="1.5"></path><path d="M968.23 502.09L968.23 502.09" stroke="hsl(133.7, 61.4%, 52.8%)" stroke-width="1.5"></path><path d="M968.23 502.09L950.56 654.78" stroke="hsl(133.7, 61.4%, 52.8%)" stroke-width="1.5"></path><path d="M968.23 502.09L810.02 537.14" stroke="hsl(133.7, 61.4%, 52.8%)" stroke-width="1.5"></path><path d="M968.23 502.09L938.48 338.98" stroke="hsl(133.7, 61.4%, 52.8%)" stroke-width="1.5"></path><path d="M968.23 502.09L821.8 363.64" stroke="hsl(133.7, 61.4%, 52.8%)" stroke-width="1.5"></path><path d="M1114.06 248.98L1114.06 248.98" stroke="hsl(133.7, 61.4%, 52.8%)" stroke-width="1.5"></path><path d="M1114.06 248.98L982.27 258.98" stroke="hsl(133.7, 61.4%, 52.8%)" stroke-width="1.5"></path><path d="M1114.06 248.98L1265.21 204.43" stroke="hsl(133.7, 61.4%, 52.8%)" stroke-width="1.5"></path><path d="M1114.06 248.98L938.48 338.98" stroke="hsl(133.7, 61.4%, 52.8%)" stroke-width="1.5"></path><path d="M1114.06 248.98L1287.53 407.89" stroke="hsl(133.7, 61.4%, 52.8%)" stroke-width="1.5"></path><path d="M1114.06 248.98L1251.19 50.49" stroke="hsl(133.7, 61.4%, 52.8%)" stroke-width="1.5"></path><path d="M1287.53 407.89L1287.53 407.89" stroke="hsl(133.7, 61.4%, 52.8%)" stroke-width="1.5"></path><path d="M1287.53 407.89L1398.35 375.96" stroke="hsl(133.7, 61.4%, 52.8%)" stroke-width="1.5"></path><path d="M1287.53 407.89L1251.13 560.61" stroke="hsl(133.7, 61.4%, 52.8%)" stroke-width="1.5"></path><path d="M1287.53 407.89L1265.21 204.43" stroke="hsl(133.7, 61.4%, 52.8%)" stroke-width="1.5"></path><path d="M1578.65 -45.76L1578.65 -45.76" stroke="hsl(133.7, 61.4%, 52.8%)" stroke-width="1.5"></path><path d="M1578.65 -45.76L1586.03 85.32" stroke="hsl(133.7, 61.4%, 52.8%)" stroke-width="1.5"></path><path d="M1578.65 -45.76L1448.59 40.73" stroke="hsl(133.7, 61.4%, 52.8%)" stroke-width="1.5"></path><path d="M1578.65 -45.76L1424.49 -111.63" stroke="hsl(133.7, 61.4%, 52.8%)" stroke-width="1.5"></path><path d="M1578.65 -45.76L1607.34 236.52" stroke="hsl(133.7, 61.4%, 52.8%)" stroke-width="1.5"></path><path d="M1578.65 -45.76L1394.11 224.7" stroke="hsl(133.7, 61.4%, 52.8%)" stroke-width="1.5"></path><path d="M1578.65 -45.76L1249.27 -95.58" stroke="hsl(133.7, 61.4%, 52.8%)" stroke-width="1.5"></path><path d="M1607.34 236.52L1607.34 236.52" stroke="hsl(133.7, 61.4%, 52.8%)" stroke-width="1.5"></path><path d="M1607.34 236.52L1579.67 350.9" stroke="hsl(133.7, 61.4%, 52.8%)" stroke-width="1.5"></path><path d="M1607.34 236.52L1586.03 85.32" stroke="hsl(133.7, 61.4%, 52.8%)" stroke-width="1.5"></path><path d="M-45.99 496.22L-45.99 496.22" stroke="hsl(133.7, 61.4%, 52.8%)" stroke-width="1.5"></path><path d="M-45.99 496.22L100.43 545.43" stroke="hsl(133.7, 61.4%, 52.8%)" stroke-width="1.5"></path><path d="M-45.99 496.22L-83.79 697.43" stroke="hsl(133.7, 61.4%, 52.8%)" stroke-width="1.5"></path><path d="M-83.79 697.43L-83.79 697.43" stroke="hsl(133.7, 61.4%, 52.8%)" stroke-width="1.5"></path><path d="M100.43 545.43L100.43 545.43" stroke="hsl(133.7, 61.4%, 52.8%)" stroke-width="1.5"></path><path d="M100.43 545.43L228.22 671.58" stroke="hsl(133.7, 61.4%, 52.8%)" stroke-width="1.5"></path><path d="M100.43 545.43L-83.79 697.43" stroke="hsl(133.7, 61.4%, 52.8%)" stroke-width="1.5"></path><path d="M228.22 671.58L228.22 671.58" stroke="hsl(133.7, 61.4%, 52.8%)" stroke-width="1.5"></path><path d="M228.22 671.58L238.84 504.99" stroke="hsl(133.7, 61.4%, 52.8%)" stroke-width="1.5"></path><path d="M228.22 671.58L398.11 641.25" stroke="hsl(133.7, 61.4%, 52.8%)" stroke-width="1.5"></path><path d="M386.59 504.34L386.59 504.34" stroke="hsl(133.7, 61.4%, 52.8%)" stroke-width="1.5"></path><path d="M386.59 504.34L398.11 641.25" stroke="hsl(133.7, 61.4%, 52.8%)" stroke-width="1.5"></path><path d="M398.11 641.25L398.11 641.25" stroke="hsl(133.7, 61.4%, 52.8%)" stroke-width="1.5"></path><path d="M398.11 641.25L533.61 680.99" stroke="hsl(133.7, 61.4%, 52.8%)" stroke-width="1.5"></path><path d="M398.11 641.25L528.84 529.84" stroke="hsl(133.7, 61.4%, 52.8%)" stroke-width="1.5"></path><path d="M398.11 641.25L238.84 504.99" stroke="hsl(133.7, 61.4%, 52.8%)" stroke-width="1.5"></path><path d="M533.61 680.99L533.61 680.99" stroke="hsl(133.7, 61.4%, 52.8%)" stroke-width="1.5"></path><path d="M533.61 680.99L528.84 529.84" stroke="hsl(133.7, 61.4%, 52.8%)" stroke-width="1.5"></path><path d="M533.61 680.99L689.54 650.55" stroke="hsl(133.7, 61.4%, 52.8%)" stroke-width="1.5"></path><path d="M533.61 680.99L660.51 514.6" stroke="hsl(133.7, 61.4%, 52.8%)" stroke-width="1.5"></path><path d="M533.61 680.99L386.59 504.34" stroke="hsl(133.7, 61.4%, 52.8%)" stroke-width="1.5"></path><path d="M533.61 680.99L811.5 703.6" stroke="hsl(133.7, 61.4%, 52.8%)" stroke-width="1.5"></path><path d="M692.41 392.94L692.41 392.94" stroke="hsl(133.7, 61.4%, 52.8%)" stroke-width="1.5"></path><path d="M692.41 392.94L660.51 514.6" stroke="hsl(133.7, 61.4%, 52.8%)" stroke-width="1.5"></path><path d="M660.51 514.6L660.51 514.6" stroke="hsl(133.7, 61.4%, 52.8%)" stroke-width="1.5"></path><path d="M660.51 514.6L689.54 650.55" stroke="hsl(133.7, 61.4%, 52.8%)" stroke-width="1.5"></path><path d="M660.51 514.6L810.02 537.14" stroke="hsl(133.7, 61.4%, 52.8%)" stroke-width="1.5"></path><path d="M689.54 650.55L689.54 650.55" stroke="hsl(133.7, 61.4%, 52.8%)" stroke-width="1.5"></path><path d="M689.54 650.55L811.5 703.6" stroke="hsl(133.7, 61.4%, 52.8%)" stroke-width="1.5"></path><path d="M810.02 537.14L810.02 537.14" stroke="hsl(133.7, 61.4%, 52.8%)" stroke-width="1.5"></path><path d="M810.02 537.14L689.54 650.55" stroke="hsl(133.7, 61.4%, 52.8%)" stroke-width="1.5"></path><path d="M810.02 537.14L811.5 703.6" stroke="hsl(133.7, 61.4%, 52.8%)" stroke-width="1.5"></path><path d="M811.5 703.6L811.5 703.6" stroke="hsl(133.7, 61.4%, 52.8%)" stroke-width="1.5"></path><path d="M811.5 703.6L950.56 654.78" stroke="hsl(133.7, 61.4%, 52.8%)" stroke-width="1.5"></path><path d="M811.5 703.6L660.51 514.6" stroke="hsl(133.7, 61.4%, 52.8%)" stroke-width="1.5"></path><path d="M982.27 258.98L982.27 258.98" stroke="hsl(133.7, 61.4%, 52.8%)" stroke-width="1.5"></path><path d="M982.27 258.98L821.8 363.64" stroke="hsl(133.7, 61.4%, 52.8%)" stroke-width="1.5"></path><path d="M982.27 258.98L968.23 502.09" stroke="hsl(133.7, 61.4%, 52.8%)" stroke-width="1.5"></path><path d="M982.27 258.98L1265.21 204.43" stroke="hsl(133.7, 61.4%, 52.8%)" stroke-width="1.5"></path><path d="M982.27 258.98L692.41 392.94" stroke="hsl(133.7, 61.4%, 52.8%)" stroke-width="1.5"></path><path d="M950.56 654.78L950.56 654.78" stroke="hsl(133.7, 61.4%, 52.8%)" stroke-width="1.5"></path><path d="M950.56 654.78L810.02 537.14" stroke="hsl(133.7, 61.4%, 52.8%)" stroke-width="1.5"></path><path d="M950.56 654.78L1145.27 684.99" stroke="hsl(133.7, 61.4%, 52.8%)" stroke-width="1.5"></path><path d="M950.56 654.78L689.54 650.55" stroke="hsl(133.7, 61.4%, 52.8%)" stroke-width="1.5"></path><path d="M950.56 654.78L1251.13 560.61" stroke="hsl(133.7, 61.4%, 52.8%)" stroke-width="1.5"></path><path d="M1145.27 684.99L1145.27 684.99" stroke="hsl(133.7, 61.4%, 52.8%)" stroke-width="1.5"></path><path d="M1145.27 684.99L1251.13 560.61" stroke="hsl(133.7, 61.4%, 52.8%)" stroke-width="1.5"></path><path d="M1145.27 684.99L1395.44 676.21" stroke="hsl(133.7, 61.4%, 52.8%)" stroke-width="1.5"></path><path d="M1145.27 684.99L968.23 502.09" stroke="hsl(133.7, 61.4%, 52.8%)" stroke-width="1.5"></path><path d="M1249.27 -95.58L1249.27 -95.58" stroke="hsl(133.7, 61.4%, 52.8%)" stroke-width="1.5"></path><path d="M1249.27 -95.58L1251.19 50.49" stroke="hsl(133.7, 61.4%, 52.8%)" stroke-width="1.5"></path><path d="M1249.27 -95.58L1424.49 -111.63" stroke="hsl(133.7, 61.4%, 52.8%)" stroke-width="1.5"></path><path d="M1249.27 -95.58L1448.59 40.73" stroke="hsl(133.7, 61.4%, 52.8%)" stroke-width="1.5"></path><path d="M1249.27 -95.58L1265.21 204.43" stroke="hsl(133.7, 61.4%, 52.8%)" stroke-width="1.5"></path><path d="M1251.19 50.49L1251.19 50.49" stroke="hsl(133.7, 61.4%, 52.8%)" stroke-width="1.5"></path><path d="M1251.19 50.49L1265.21 204.43" stroke="hsl(133.7, 61.4%, 52.8%)" stroke-width="1.5"></path><path d="M1251.19 50.49L1448.59 40.73" stroke="hsl(133.7, 61.4%, 52.8%)" stroke-width="1.5"></path><path d="M1251.19 50.49L1394.11 224.7" stroke="hsl(133.7, 61.4%, 52.8%)" stroke-width="1.5"></path><path d="M1251.19 50.49L1424.49 -111.63" stroke="hsl(133.7, 61.4%, 52.8%)" stroke-width="1.5"></path><path d="M1265.21 204.43L1265.21 204.43" stroke="hsl(133.7, 61.4%, 52.8%)" stroke-width="1.5"></path><path d="M1265.21 204.43L1394.11 224.7" stroke="hsl(133.7, 61.4%, 52.8%)" stroke-width="1.5"></path><path d="M1265.21 204.43L1398.35 375.96" stroke="hsl(133.7, 61.4%, 52.8%)" stroke-width="1.5"></path><path d="M1265.21 204.43L1448.59 40.73" stroke="hsl(133.7, 61.4%, 52.8%)" stroke-width="1.5"></path><path d="M1251.13 560.61L1251.13 560.61" stroke="hsl(133.7, 61.4%, 52.8%)" stroke-width="1.5"></path><path d="M1251.13 560.61L1395.44 676.21" stroke="hsl(133.7, 61.4%, 52.8%)" stroke-width="1.5"></path><path d="M1251.13 560.61L1450.57 544.4" stroke="hsl(133.7, 61.4%, 52.8%)" stroke-width="1.5"></path><path d="M1251.13 560.61L1398.35 375.96" stroke="hsl(133.7, 61.4%, 52.8%)" stroke-width="1.5"></path><path d="M1424.49 -111.63L1424.49 -111.63" stroke="hsl(133.7, 61.4%, 52.8%)" stroke-width="1.5"></path><path d="M1424.49 -111.63L1448.59 40.73" stroke="hsl(133.7, 61.4%, 52.8%)" stroke-width="1.5"></path><path d="M1448.59 40.73L1448.59 40.73" stroke="hsl(133.7, 61.4%, 52.8%)" stroke-width="1.5"></path><path d="M1448.59 40.73L1586.03 85.32" stroke="hsl(133.7, 61.4%, 52.8%)" stroke-width="1.5"></path><path d="M1448.59 40.73L1394.11 224.7" stroke="hsl(133.7, 61.4%, 52.8%)" stroke-width="1.5"></path><path d="M1394.11 224.7L1394.11 224.7" stroke="hsl(133.7, 61.4%, 52.8%)" stroke-width="1.5"></path><path d="M1394.11 224.7L1398.35 375.96" stroke="hsl(133.7, 61.4%, 52.8%)" stroke-width="1.5"></path><path d="M1398.35 375.96L1398.35 375.96" stroke="hsl(133.7, 61.4%, 52.8%)" stroke-width="1.5"></path><path d="M1398.35 375.96L1450.57 544.4" stroke="hsl(133.7, 61.4%, 52.8%)" stroke-width="1.5"></path><path d="M1398.35 375.96L1579.67 350.9" stroke="hsl(133.7, 61.4%, 52.8%)" stroke-width="1.5"></path><path d="M1450.57 544.4L1450.57 544.4" stroke="hsl(133.7, 61.4%, 52.8%)" stroke-width="1.5"></path><path d="M1450.57 544.4L1569.28 560.29" stroke="hsl(133.7, 61.4%, 52.8%)" stroke-width="1.5"></path><path d="M1450.57 544.4L1395.44 676.21" stroke="hsl(133.7, 61.4%, 52.8%)" stroke-width="1.5"></path><path d="M1450.57 544.4L1572.12 652.94" stroke="hsl(133.7, 61.4%, 52.8%)" stroke-width="1.5"></path><path d="M1395.44 676.21L1395.44 676.21" stroke="hsl(133.7, 61.4%, 52.8%)" stroke-width="1.5"></path><path d="M1395.44 676.21L1572.12 652.94" stroke="hsl(133.7, 61.4%, 52.8%)" stroke-width="1.5"></path><path d="M1395.44 676.21L1569.28 560.29" stroke="hsl(133.7, 61.4%, 52.8%)" stroke-width="1.5"></path><path d="M1395.44 676.21L1287.53 407.89" stroke="hsl(133.7, 61.4%, 52.8%)" stroke-width="1.5"></path><path d="M1586.03 85.32L1586.03 85.32" stroke="hsl(133.7, 61.4%, 52.8%)" stroke-width="1.5"></path><path d="M1586.03 85.32L1394.11 224.7" stroke="hsl(133.7, 61.4%, 52.8%)" stroke-width="1.5"></path><path d="M1579.67 350.9L1579.67 350.9" stroke="hsl(133.7, 61.4%, 52.8%)" stroke-width="1.5"></path><path d="M1579.67 350.9L1569.28 560.29" stroke="hsl(133.7, 61.4%, 52.8%)" stroke-width="1.5"></path><path d="M1579.67 350.9L1394.11 224.7" stroke="hsl(133.7, 61.4%, 52.8%)" stroke-width="1.5"></path><path d="M1569.28 560.29L1569.28 560.29" stroke="hsl(133.7, 61.4%, 52.8%)" stroke-width="1.5"></path><path d="M1569.28 560.29L1572.12 652.94" stroke="hsl(133.7, 61.4%, 52.8%)" stroke-width="1.5"></path><path d="M1572.12 652.94L1572.12 652.94" stroke="hsl(133.7, 61.4%, 52.8%)" stroke-width="1.5"></path><path d="M1572.12 652.94L1579.67 350.9" stroke="hsl(133.7, 61.4%, 52.8%)" stroke-width="1.5"></path><path d="M1572.12 652.94L1398.35 375.96" stroke="hsl(133.7, 61.4%, 52.8%)" stroke-width="1.5"></path><path d="M1572.12 652.94L1251.13 560.61" stroke="hsl(133.7, 61.4%, 52.8%)" stroke-width="1.5"></path><circle r="25" cx="238.84" cy="504.99" fill="url(#SvgjsRadialGradient1009)"></circle><circle r="25" cx="528.84" cy="529.84" fill="url(#SvgjsRadialGradient1009)"></circle><circle r="25" cx="821.8" cy="363.64" fill="url(#SvgjsRadialGradient1009)"></circle><circle r="25" cx="938.48" cy="338.98" fill="url(#SvgjsRadialGradient1009)"></circle><circle r="25" cx="968.23" cy="502.09" fill="url(#SvgjsRadialGradient1009)"></circle><circle r="25" cx="1114.06" cy="248.98" fill="url(#SvgjsRadialGradient1009)"></circle><circle r="25" cx="1287.53" cy="407.89" fill="url(#SvgjsRadialGradient1009)"></circle><circle r="25" cx="1578.65" cy="-45.76" fill="url(#SvgjsRadialGradient1009)"></circle><circle r="25" cx="1607.34" cy="236.52" fill="url(#SvgjsRadialGradient1009)"></circle><circle r="5" cx="-45.99" cy="496.22" fill="#94d3a2"></circle><circle r="5" cx="-83.79" cy="697.43" fill="#94d3a2"></circle><circle r="5" cx="100.43" cy="545.43" fill="#94d3a2"></circle><circle r="5" cx="228.22" cy="671.58" fill="#94d3a2"></circle><circle r="5" cx="386.59" cy="504.34" fill="#94d3a2"></circle><circle r="5" cx="398.11" cy="641.25" fill="#94d3a2"></circle><circle r="5" cx="533.61" cy="680.99" fill="#94d3a2"></circle><circle r="5" cx="692.41" cy="392.94" fill="#94d3a2"></circle><circle r="5" cx="660.51" cy="514.6" fill="#94d3a2"></circle><circle r="5" cx="689.54" cy="650.55" fill="#94d3a2"></circle><circle r="5" cx="810.02" cy="537.14" fill="#94d3a2"></circle><circle r="5" cx="811.5" cy="703.6" fill="#94d3a2"></circle><circle r="5" cx="982.27" cy="258.98" fill="#94d3a2"></circle><circle r="5" cx="950.56" cy="654.78" fill="#94d3a2"></circle><circle r="5" cx="1145.27" cy="684.99" fill="#94d3a2"></circle><circle r="5" cx="1249.27" cy="-95.58" fill="#94d3a2"></circle><circle r="5" cx="1251.19" cy="50.49" fill="#94d3a2"></circle><circle r="5" cx="1265.21" cy="204.43" fill="#94d3a2"></circle><circle r="5" cx="1251.13" cy="560.61" fill="#94d3a2"></circle><circle r="5" cx="1424.49" cy="-111.63" fill="#94d3a2"></circle><circle r="5" cx="1448.59" cy="40.73" fill="#94d3a2"></circle><circle r="5" cx="1394.11" cy="224.7" fill="#94d3a2"></circle><circle r="5" cx="1398.35" cy="375.96" fill="#94d3a2"></circle><circle r="5" cx="1450.57" cy="544.4" fill="#94d3a2"></circle><circle r="5" cx="1395.44" cy="676.21" fill="#94d3a2"></circle><circle r="5" cx="1586.03" cy="85.32" fill="#94d3a2"></circle><circle r="5" cx="1579.67" cy="350.9" fill="#94d3a2"></circle><circle r="5" cx="1569.28" cy="560.29" fill="#94d3a2"></circle><circle r="5" cx="1572.12" cy="652.94" fill="#94d3a2"></circle></g><defs><mask id="SvgjsMask1008"><rect width="1440" height="560" fill="#ffffff"></rect></mask><radialGradient id="SvgjsRadialGradient1009"><stop stop-color="#ffffff" offset="0.1"></stop><stop stop-color="rgba(40, 167, 69, 1)" offset="0.2"></stop><stop stop-color="rgba(40, 167, 69, 0)" offset="1"></stop></radialGradient></defs></svg>