<svg xmlns="http://www.w3.org/2000/svg" version="1.1" xmlns:xlink="http://www.w3.org/1999/xlink" xmlns:svgjs="http://svgjs.com/svgjs" width="1440" height="560" preserveAspectRatio="none" viewBox="0 0 1440 560"><g mask="url(&quot;#SvgjsMask1026&quot;)" fill="none"><rect width="1440" height="560" x="0" y="0" fill="rgba(33, 37, 41, 1)"></rect><path d="M119.95 96.75L195.29 140.25L195.29 227.25L119.95 270.75L44.6 227.25L44.6 140.25zM44.6 227.25L119.95 270.75L119.95 357.75L44.6 401.25L-30.75 357.75L-30.75 270.75zM421.33 96.75L496.68 140.25L496.68 227.25L421.33 270.75L345.99 227.25L345.99 140.25zM572.02 357.75L647.37 401.25L647.37 488.25L572.02 531.75L496.68 488.25L496.68 401.25zM722.72 357.75L798.06 401.25L798.06 488.25L722.72 531.75L647.37 488.25L647.37 401.25zM647.37 488.25L722.72 531.75L722.72 618.75L647.37 662.25L572.02 618.75L572.02 531.75zM948.76 -33.75L1024.1 9.75L1024.1 96.75L948.76 140.25L873.41 96.75L873.41 9.75zM1024.1 96.75L1099.45 140.25L1099.45 227.25L1024.1 270.75L948.76 227.25L948.76 140.25zM948.76 227.25L1024.1 270.75L1024.1 357.75L948.76 401.25L873.41 357.75L873.41 270.75zM1099.45 -33.75L1174.8 9.75L1174.8 96.75L1099.45 140.25L1024.1 96.75L1024.1 9.75zM1174.8 96.75L1250.14 140.25L1250.14 227.25L1174.8 270.75L1099.45 227.25L1099.45 140.25zM1174.8 357.75L1250.14 401.25L1250.14 488.25L1174.8 531.75L1099.45 488.25L1099.45 401.25zM1400.83 227.25L1476.18 270.75L1476.18 357.75L1400.83 401.25L1325.49 357.75L1325.49 270.75z" stroke="rgba(6, 111, 30, 1)" stroke-width="2"></path><path d="M111.25 96.75 a8.7 8.7 0 1 0 17.4 0 a8.7 8.7 0 1 0 -17.4 0zM186.59 140.25 a8.7 8.7 0 1 0 17.4 0 a8.7 8.7 0 1 0 -17.4 0zM186.59 227.25 a8.7 8.7 0 1 0 17.4 0 a8.7 8.7 0 1 0 -17.4 0zM111.25 270.75 a8.7 8.7 0 1 0 17.4 0 a8.7 8.7 0 1 0 -17.4 0zM35.9 227.25 a8.7 8.7 0 1 0 17.4 0 a8.7 8.7 0 1 0 -17.4 0zM35.9 140.25 a8.7 8.7 0 1 0 17.4 0 a8.7 8.7 0 1 0 -17.4 0zM111.25 357.75 a8.7 8.7 0 1 0 17.4 0 a8.7 8.7 0 1 0 -17.4 0zM35.9 401.25 a8.7 8.7 0 1 0 17.4 0 a8.7 8.7 0 1 0 -17.4 0zM-39.45 357.75 a8.7 8.7 0 1 0 17.4 0 a8.7 8.7 0 1 0 -17.4 0zM-39.45 270.75 a8.7 8.7 0 1 0 17.4 0 a8.7 8.7 0 1 0 -17.4 0zM412.63 96.75 a8.7 8.7 0 1 0 17.4 0 a8.7 8.7 0 1 0 -17.4 0zM487.98 140.25 a8.7 8.7 0 1 0 17.4 0 a8.7 8.7 0 1 0 -17.4 0zM487.98 227.25 a8.7 8.7 0 1 0 17.4 0 a8.7 8.7 0 1 0 -17.4 0zM412.63 270.75 a8.7 8.7 0 1 0 17.4 0 a8.7 8.7 0 1 0 -17.4 0zM337.29 227.25 a8.7 8.7 0 1 0 17.4 0 a8.7 8.7 0 1 0 -17.4 0zM337.29 140.25 a8.7 8.7 0 1 0 17.4 0 a8.7 8.7 0 1 0 -17.4 0zM563.32 357.75 a8.7 8.7 0 1 0 17.4 0 a8.7 8.7 0 1 0 -17.4 0zM638.67 401.25 a8.7 8.7 0 1 0 17.4 0 a8.7 8.7 0 1 0 -17.4 0zM638.67 488.25 a8.7 8.7 0 1 0 17.4 0 a8.7 8.7 0 1 0 -17.4 0zM563.32 531.75 a8.7 8.7 0 1 0 17.4 0 a8.7 8.7 0 1 0 -17.4 0zM487.98 488.25 a8.7 8.7 0 1 0 17.4 0 a8.7 8.7 0 1 0 -17.4 0zM487.98 401.25 a8.7 8.7 0 1 0 17.4 0 a8.7 8.7 0 1 0 -17.4 0zM714.02 357.75 a8.7 8.7 0 1 0 17.4 0 a8.7 8.7 0 1 0 -17.4 0zM789.36 401.25 a8.7 8.7 0 1 0 17.4 0 a8.7 8.7 0 1 0 -17.4 0zM789.36 488.25 a8.7 8.7 0 1 0 17.4 0 a8.7 8.7 0 1 0 -17.4 0zM714.02 531.75 a8.7 8.7 0 1 0 17.4 0 a8.7 8.7 0 1 0 -17.4 0zM714.02 618.75 a8.7 8.7 0 1 0 17.4 0 a8.7 8.7 0 1 0 -17.4 0zM638.67 662.25 a8.7 8.7 0 1 0 17.4 0 a8.7 8.7 0 1 0 -17.4 0zM563.32 618.75 a8.7 8.7 0 1 0 17.4 0 a8.7 8.7 0 1 0 -17.4 0zM940.06 -33.75 a8.7 8.7 0 1 0 17.4 0 a8.7 8.7 0 1 0 -17.4 0zM1015.4 9.75 a8.7 8.7 0 1 0 17.4 0 a8.7 8.7 0 1 0 -17.4 0zM1015.4 96.75 a8.7 8.7 0 1 0 17.4 0 a8.7 8.7 0 1 0 -17.4 0zM940.06 140.25 a8.7 8.7 0 1 0 17.4 0 a8.7 8.7 0 1 0 -17.4 0zM864.71 96.75 a8.7 8.7 0 1 0 17.4 0 a8.7 8.7 0 1 0 -17.4 0zM864.71 9.75 a8.7 8.7 0 1 0 17.4 0 a8.7 8.7 0 1 0 -17.4 0zM1090.75 140.25 a8.7 8.7 0 1 0 17.4 0 a8.7 8.7 0 1 0 -17.4 0zM1090.75 227.25 a8.7 8.7 0 1 0 17.4 0 a8.7 8.7 0 1 0 -17.4 0zM1015.4 270.75 a8.7 8.7 0 1 0 17.4 0 a8.7 8.7 0 1 0 -17.4 0zM940.06 227.25 a8.7 8.7 0 1 0 17.4 0 a8.7 8.7 0 1 0 -17.4 0zM1015.4 357.75 a8.7 8.7 0 1 0 17.4 0 a8.7 8.7 0 1 0 -17.4 0zM940.06 401.25 a8.7 8.7 0 1 0 17.4 0 a8.7 8.7 0 1 0 -17.4 0zM864.71 357.75 a8.7 8.7 0 1 0 17.4 0 a8.7 8.7 0 1 0 -17.4 0zM864.71 270.75 a8.7 8.7 0 1 0 17.4 0 a8.7 8.7 0 1 0 -17.4 0zM1090.75 -33.75 a8.7 8.7 0 1 0 17.4 0 a8.7 8.7 0 1 0 -17.4 0zM1166.1 9.75 a8.7 8.7 0 1 0 17.4 0 a8.7 8.7 0 1 0 -17.4 0zM1166.1 96.75 a8.7 8.7 0 1 0 17.4 0 a8.7 8.7 0 1 0 -17.4 0zM1241.44 140.25 a8.7 8.7 0 1 0 17.4 0 a8.7 8.7 0 1 0 -17.4 0zM1241.44 227.25 a8.7 8.7 0 1 0 17.4 0 a8.7 8.7 0 1 0 -17.4 0zM1166.1 270.75 a8.7 8.7 0 1 0 17.4 0 a8.7 8.7 0 1 0 -17.4 0zM1166.1 357.75 a8.7 8.7 0 1 0 17.4 0 a8.7 8.7 0 1 0 -17.4 0zM1241.44 401.25 a8.7 8.7 0 1 0 17.4 0 a8.7 8.7 0 1 0 -17.4 0zM1241.44 488.25 a8.7 8.7 0 1 0 17.4 0 a8.7 8.7 0 1 0 -17.4 0zM1166.1 531.75 a8.7 8.7 0 1 0 17.4 0 a8.7 8.7 0 1 0 -17.4 0zM1090.75 488.25 a8.7 8.7 0 1 0 17.4 0 a8.7 8.7 0 1 0 -17.4 0zM1090.75 401.25 a8.7 8.7 0 1 0 17.4 0 a8.7 8.7 0 1 0 -17.4 0zM1392.13 227.25 a8.7 8.7 0 1 0 17.4 0 a8.7 8.7 0 1 0 -17.4 0zM1467.48 270.75 a8.7 8.7 0 1 0 17.4 0 a8.7 8.7 0 1 0 -17.4 0zM1467.48 357.75 a8.7 8.7 0 1 0 17.4 0 a8.7 8.7 0 1 0 -17.4 0zM1392.13 401.25 a8.7 8.7 0 1 0 17.4 0 a8.7 8.7 0 1 0 -17.4 0zM1316.79 357.75 a8.7 8.7 0 1 0 17.4 0 a8.7 8.7 0 1 0 -17.4 0zM1316.79 270.75 a8.7 8.7 0 1 0 17.4 0 a8.7 8.7 0 1 0 -17.4 0z" fill="rgba(6, 111, 30, 1)"></path><path d="M68.83 36.04L112.14 61.04L112.14 111.04L68.83 136.04L25.53 111.04L25.53 61.04zM68.83 186.04L112.14 211.04L112.14 261.04L68.83 286.04L25.53 261.04L25.53 211.04zM68.83 336.04L112.14 361.04L112.14 411.04L68.83 436.04L25.53 411.04L25.53 361.04zM155.44 186.04L198.74 211.04L198.74 261.04L155.44 286.04L112.14 261.04L112.14 211.04zM155.44 486.04L198.74 511.04L198.74 561.04L155.44 586.04L112.14 561.04L112.14 511.04zM198.74 111.04L242.04 136.04L242.04 186.04L198.74 211.04L155.44 186.04L155.44 136.04zM198.74 261.04L242.04 286.04L242.04 336.04L198.74 361.04L155.44 336.04L155.44 286.04zM242.04 336.04L285.35 361.04L285.35 411.04L242.04 436.04L198.74 411.04L198.74 361.04zM328.65 36.04L371.95 61.04L371.95 111.04L328.65 136.04L285.35 111.04L285.35 61.04zM285.35 111.04L328.65 136.04L328.65 186.04L285.35 211.04L242.04 186.04L242.04 136.04zM285.35 411.04L328.65 436.04L328.65 486.04L285.35 511.04L242.04 486.04L242.04 436.04zM415.25 186.04L458.56 211.04L458.56 261.04L415.25 286.04L371.95 261.04L371.95 211.04zM371.95 411.04L415.25 436.04L415.25 486.04L371.95 511.04L328.65 486.04L328.65 436.04zM415.25 486.04L458.56 511.04L458.56 561.04L415.25 586.04L371.95 561.04L371.95 511.04zM501.86 36.04L545.16 61.04L545.16 111.04L501.86 136.04L458.56 111.04L458.56 61.04zM458.56 261.04L501.86 286.04L501.86 336.04L458.56 361.04L415.25 336.04L415.25 286.04zM501.86 336.04L545.16 361.04L545.16 411.04L501.86 436.04L458.56 411.04L458.56 361.04zM501.86 486.04L545.16 511.04L545.16 561.04L501.86 586.04L458.56 561.04L458.56 511.04zM588.46 486.04L631.76 511.04L631.76 561.04L588.46 586.04L545.16 561.04L545.16 511.04zM675.07 36.04L718.37 61.04L718.37 111.04L675.07 136.04L631.76 111.04L631.76 61.04zM631.76 111.04L675.07 136.04L675.07 186.04L631.76 211.04L588.46 186.04L588.46 136.04zM675.07 186.04L718.37 211.04L718.37 261.04L675.07 286.04L631.76 261.04L631.76 211.04zM631.76 261.04L675.07 286.04L675.07 336.04L631.76 361.04L588.46 336.04L588.46 286.04zM675.07 336.04L718.37 361.04L718.37 411.04L675.07 436.04L631.76 411.04L631.76 361.04zM718.37 -38.96L761.67 -13.96L761.67 36.04L718.37 61.04L675.07 36.04L675.07 -13.96zM761.67 186.04L804.98 211.04L804.98 261.04L761.67 286.04L718.37 261.04L718.37 211.04zM718.37 261.04L761.67 286.04L761.67 336.04L718.37 361.04L675.07 336.04L675.07 286.04zM761.67 486.04L804.98 511.04L804.98 561.04L761.67 586.04L718.37 561.04L718.37 511.04zM804.98 -38.96L848.28 -13.96L848.28 36.04L804.98 61.04L761.67 36.04L761.67 -13.96zM848.28 486.04L891.58 511.04L891.58 561.04L848.28 586.04L804.98 561.04L804.98 511.04zM891.58 261.04L934.88 286.04L934.88 336.04L891.58 361.04L848.28 336.04L848.28 286.04zM934.88 336.04L978.19 361.04L978.19 411.04L934.88 436.04L891.58 411.04L891.58 361.04zM934.88 486.04L978.19 511.04L978.19 561.04L934.88 586.04L891.58 561.04L891.58 511.04zM978.19 -38.96L1021.49 -13.96L1021.49 36.04L978.19 61.04L934.88 36.04L934.88 -13.96zM1021.49 186.04L1064.79 211.04L1064.79 261.04L1021.49 286.04L978.19 261.04L978.19 211.04zM978.19 411.04L1021.49 436.04L1021.49 486.04L978.19 511.04L934.88 486.04L934.88 436.04zM1064.79 -38.96L1108.09 -13.96L1108.09 36.04L1064.79 61.04L1021.49 36.04L1021.49 -13.96zM1108.09 36.04L1151.39 61.04L1151.39 111.04L1108.09 136.04L1064.79 111.04L1064.79 61.04zM1064.79 261.04L1108.09 286.04L1108.09 336.04L1064.79 361.04L1021.49 336.04L1021.49 286.04zM1194.7 36.04L1238 61.04L1238 111.04L1194.7 136.04L1151.39 111.04L1151.39 61.04zM1151.39 111.04L1194.7 136.04L1194.7 186.04L1151.39 211.04L1108.09 186.04L1108.09 136.04zM1194.7 186.04L1238 211.04L1238 261.04L1194.7 286.04L1151.39 261.04L1151.39 211.04zM1151.39 411.04L1194.7 436.04L1194.7 486.04L1151.39 511.04L1108.09 486.04L1108.09 436.04zM1281.3 36.04L1324.61 61.04L1324.61 111.04L1281.3 136.04L1238 111.04L1238 61.04zM1238 111.04L1281.3 136.04L1281.3 186.04L1238 211.04L1194.7 186.04L1194.7 136.04zM1281.3 186.04L1324.61 211.04L1324.61 261.04L1281.3 286.04L1238 261.04L1238 211.04zM1281.3 336.04L1324.61 361.04L1324.61 411.04L1281.3 436.04L1238 411.04L1238 361.04zM1324.61 261.04L1367.91 286.04L1367.91 336.04L1324.61 361.04L1281.3 336.04L1281.3 286.04zM1454.51 36.04L1497.82 61.04L1497.82 111.04L1454.51 136.04L1411.21 111.04L1411.21 61.04zM1411.21 261.04L1454.51 286.04L1454.51 336.04L1411.21 361.04L1367.91 336.04L1367.91 286.04zM1454.51 336.04L1497.82 361.04L1497.82 411.04L1454.51 436.04L1411.21 411.04L1411.21 361.04zM1454.51 486.04L1497.82 511.04L1497.82 561.04L1454.51 586.04L1411.21 561.04L1411.21 511.04z" stroke="rgba(40, 167, 69, 1)" stroke-width="2"></path></g><defs><mask id="SvgjsMask1026"><rect width="1440" height="560" fill="#ffffff"></rect></mask></defs></svg>