<svg xmlns="http://www.w3.org/2000/svg" version="1.1" xmlns:xlink="http://www.w3.org/1999/xlink" xmlns:svgjs="http://svgjs.com/svgjs" width="1440" height="560" preserveAspectRatio="none" viewBox="0 0 1440 560"><g mask="url(&quot;#SvgjsMask1118&quot;)" fill="none"><rect width="1440" height="560" x="0" y="0" fill="rgba(33, 37, 41, 1)"></rect><path d="M0 91.21L10 147.76L20 178.47L30 150.62L40 178.74L50 141.23L60 166.79L70 127.3L80 166.29L90 171.06L100 176.91L110 228.68L120 206.41L130 138.11L140 191L150 168.09L160 150.66L170 179.57L180 192.97L190 220.7L200 152.26L210 201.93L220 197.97L230 223.64L240 284.21L250 253.98L260 204.03L270 215.2L280 266.04L290 225.83L300 271.5L310 296.19L320 297.47L330 327.39L340 376.26L350 438.93L360 460.15L370 471.42L380 451.27L390 460.91L400 464.11L410 524.46L420 512.82L430 461.09L440 450.32L450 446.94L460 471.69L470 425.34L480 384.22L490 372.67L500 365.11L510 387.75L520 369.5L530 313.64L540 327.77L550 376.09L560 376.37L570 407.33L580 358.91L590 300.06L600 255.35L610 309.93L620 247.04L630 177.35L640 202.87L650 136.99L660 196.04L670 196.47L680 260.12L690 260.05L700 244.43L710 239.85L720 222.12L730 250.91L740 292.64L750 268.02L760 239.48L770 214.07L780 158.89L790 160.88L800 186.63L810 205.42L820 239.57L830 217.01L840 179.23L850 116.81L860 102.27L870 72.61L880 59.84L890 46.19L900 99.67L910 160.11L920 98.63L930 148.23L940 206.6L950 162.43L960 193.02L970 131.53L980 149.81L990 205.84L1000 254.35L1010 287.61L1020 306.83L1030 345.27L1040 382.19L1050 352.39L1060 291.64L1070 277.14L1080 304.8L1090 246.83L1100 235.93L1110 272.31L1120 292.62L1130 341.94L1140 283.03L1150 251.52L1160 292.19L1170 339.6L1180 396.9L1190 381.45L1200 385.68L1210 349.51L1220 382.15L1230 328.38L1240 301.98L1250 243.34L1260 260.01L1270 290.16L1280 293.01L1290 314.68L1300 281.55L1310 339.39L1320 287.69L1330 333.54L1340 273.11L1350 328L1360 375.61L1370 343.68L1380 345.45L1390 328.78L1400 263.23L1410 216.72L1420 265.93L1430 309.67L1440 343.51" stroke="rgba(15, 157, 88, 1)" stroke-width="2"></path><path d="M0 91.21L10 147.76L20 178.47L30 150.62L40 178.74L50 141.23L60 166.79L70 127.3L80 166.29L90 171.06L100 176.91L110 228.68L120 206.41L130 138.11L140 191L150 168.09L160 150.66L170 179.57L180 192.97L190 220.7L200 152.26L210 201.93L220 197.97L230 223.64L240 284.21L250 253.98L260 204.03L270 215.2L280 266.04L290 225.83L300 271.5L310 296.19L320 297.47L330 327.39L340 376.26L350 438.93L360 460.15L370 471.42L380 451.27L390 460.91L400 464.11L410 524.46L420 512.82L430 461.09L440 450.32L450 446.94L460 471.69L470 425.34L480 384.22L490 372.67L500 365.11L510 387.75L520 369.5L530 313.64L540 327.77L550 376.09L560 376.37L570 407.33L580 358.91L590 300.06L600 255.35L610 309.93L620 247.04L630 177.35L640 202.87L650 136.99L660 196.04L670 196.47L680 260.12L690 260.05L700 244.43L710 239.85L720 222.12L730 250.91L740 292.64L750 268.02L760 239.48L770 214.07L780 158.89L790 160.88L800 186.63L810 205.42L820 239.57L830 217.01L840 179.23L850 116.81L860 102.27L870 72.61L880 59.84L890 46.19L900 99.67L910 160.11L920 98.63L930 148.23L940 206.6L950 162.43L960 193.02L970 131.53L980 149.81L990 205.84L1000 254.35L1010 287.61L1020 306.83L1030 345.27L1040 382.19L1050 352.39L1060 291.64L1070 277.14L1080 304.8L1090 246.83L1100 235.93L1110 272.31L1120 292.62L1130 341.94L1140 283.03L1150 251.52L1160 292.19L1170 339.6L1180 396.9L1190 381.45L1200 385.68L1210 349.51L1220 382.15L1230 328.38L1240 301.98L1250 243.34L1260 260.01L1270 290.16L1280 293.01L1290 314.68L1300 281.55L1310 339.39L1320 287.69L1330 333.54L1340 273.11L1350 328L1360 375.61L1370 343.68L1380 345.45L1390 328.78L1400 263.23L1410 216.72L1420 265.93L1430 309.67L1440 343.51L1440 560L0 560z" fill="url(#SvgjsLinearGradient1119)"></path></g><defs><mask id="SvgjsMask1118"><rect width="1440" height="560" fill="#ffffff"></rect></mask><linearGradient x1="50%" y1="0%" x2="50%" y2="100%" id="SvgjsLinearGradient1119"><stop stop-opacity="0.65" stop-color="rgba(15, 157, 88, 1)" offset="0"></stop><stop stop-opacity="0" stop-color="#55efa4" offset="0.8"></stop></linearGradient></defs></svg>