<svg xmlns="http://www.w3.org/2000/svg" version="1.1" xmlns:xlink="http://www.w3.org/1999/xlink" xmlns:svgjs="http://svgjs.com/svgjs" width="1440" height="560" preserveAspectRatio="none" viewBox="0 0 1440 560"><g mask="url(&quot;#SvgjsMask1002&quot;)" fill="none"><rect width="1440" height="560" x="0" y="0" fill="rgba(255, 255, 255, 1)"></rect><path d="M-84.43 398.96L-84.43 398.96" stroke="#132e65" stroke-width="1.5"></path><path d="M-84.43 398.96L-61.63 535.41" stroke="#132e65" stroke-width="1.5"></path><path d="M-84.43 398.96L73.29 356.96" stroke="#132e65" stroke-width="1.5"></path><path d="M-84.43 398.96L69.75 519.56" stroke="#132e65" stroke-width="1.5"></path><path d="M-84.43 398.96L64.5 646.05" stroke="#132e65" stroke-width="1.5"></path><path d="M-84.43 398.96L-89.06 699.96" stroke="#132e65" stroke-width="1.5"></path><path d="M-84.43 398.96L243.8 340.53" stroke="#132e65" stroke-width="1.5"></path><path d="M-61.63 535.41L-61.63 535.41" stroke="#132e65" stroke-width="1.5"></path><path d="M-61.63 535.41L69.75 519.56" stroke="#132e65" stroke-width="1.5"></path><path d="M-61.63 535.41L-89.06 699.96" stroke="#132e65" stroke-width="1.5"></path><path d="M-89.06 699.96L-89.06 699.96" stroke="#132e65" stroke-width="1.5"></path><path d="M-89.06 699.96L64.5 646.05" stroke="#132e65" stroke-width="1.5"></path><path d="M-89.06 699.96L69.75 519.56" stroke="#132e65" stroke-width="1.5"></path><path d="M-89.06 699.96L210.77 673.12" stroke="#132e65" stroke-width="1.5"></path><path d="M73.29 356.96L73.29 356.96" stroke="#132e65" stroke-width="1.5"></path><path d="M73.29 356.96L69.75 519.56" stroke="#132e65" stroke-width="1.5"></path><path d="M73.29 356.96L243.8 340.53" stroke="#132e65" stroke-width="1.5"></path><path d="M69.75 519.56L69.75 519.56" stroke="#132e65" stroke-width="1.5"></path><path d="M69.75 519.56L64.5 646.05" stroke="#132e65" stroke-width="1.5"></path><path d="M69.75 519.56L235.73 518.91" stroke="#132e65" stroke-width="1.5"></path><path d="M64.5 646.05L64.5 646.05" stroke="#132e65" stroke-width="1.5"></path><path d="M64.5 646.05L210.77 673.12" stroke="#132e65" stroke-width="1.5"></path><path d="M64.5 646.05L-61.63 535.41" stroke="#132e65" stroke-width="1.5"></path><path d="M243.8 340.53L243.8 340.53" stroke="#132e65" stroke-width="1.5"></path><path d="M243.8 340.53L345.87 352.2" stroke="#132e65" stroke-width="1.5"></path><path d="M243.8 340.53L235.73 518.91" stroke="#132e65" stroke-width="1.5"></path><path d="M243.8 340.53L355.65 541.03" stroke="#132e65" stroke-width="1.5"></path><path d="M243.8 340.53L69.75 519.56" stroke="#132e65" stroke-width="1.5"></path><path d="M235.73 518.91L235.73 518.91" stroke="#132e65" stroke-width="1.5"></path><path d="M235.73 518.91L355.65 541.03" stroke="#132e65" stroke-width="1.5"></path><path d="M235.73 518.91L210.77 673.12" stroke="#132e65" stroke-width="1.5"></path><path d="M210.77 673.12L210.77 673.12" stroke="#132e65" stroke-width="1.5"></path><path d="M345.87 352.2L345.87 352.2" stroke="#132e65" stroke-width="1.5"></path><path d="M345.87 352.2L355.65 541.03" stroke="#132e65" stroke-width="1.5"></path><path d="M345.87 352.2L235.73 518.91" stroke="#132e65" stroke-width="1.5"></path><path d="M345.87 352.2L561.43 340.82" stroke="#132e65" stroke-width="1.5"></path><path d="M355.65 541.03L355.65 541.03" stroke="#132e65" stroke-width="1.5"></path><path d="M355.65 541.03L402.18 698.94" stroke="#132e65" stroke-width="1.5"></path><path d="M355.65 541.03L210.77 673.12" stroke="#132e65" stroke-width="1.5"></path><path d="M355.65 541.03L554.7 500.13" stroke="#132e65" stroke-width="1.5"></path><path d="M402.18 698.94L402.18 698.94" stroke="#132e65" stroke-width="1.5"></path><path d="M402.18 698.94L539.89 679.65" stroke="#132e65" stroke-width="1.5"></path><path d="M402.18 698.94L210.77 673.12" stroke="#132e65" stroke-width="1.5"></path><path d="M561.43 340.82L561.43 340.82" stroke="#132e65" stroke-width="1.5"></path><path d="M561.43 340.82L673.71 349.51" stroke="#132e65" stroke-width="1.5"></path><path d="M561.43 340.82L554.7 500.13" stroke="#132e65" stroke-width="1.5"></path><path d="M561.43 340.82L790.02 362.63" stroke="#132e65" stroke-width="1.5"></path><path d="M561.43 340.82L690.79 530.89" stroke="#132e65" stroke-width="1.5"></path><path d="M561.43 340.82L355.65 541.03" stroke="#132e65" stroke-width="1.5"></path><path d="M554.7 500.13L554.7 500.13" stroke="#132e65" stroke-width="1.5"></path><path d="M554.7 500.13L690.79 530.89" stroke="#132e65" stroke-width="1.5"></path><path d="M539.89 679.65L539.89 679.65" stroke="#132e65" stroke-width="1.5"></path><path d="M539.89 679.65L653.83 691.08" stroke="#132e65" stroke-width="1.5"></path><path d="M673.71 349.51L673.71 349.51" stroke="#132e65" stroke-width="1.5"></path><path d="M673.71 349.51L790.02 362.63" stroke="#132e65" stroke-width="1.5"></path><path d="M673.71 349.51L690.79 530.89" stroke="#132e65" stroke-width="1.5"></path><path d="M673.71 349.51L554.7 500.13" stroke="#132e65" stroke-width="1.5"></path><path d="M673.71 349.51L848.48 545.25" stroke="#132e65" stroke-width="1.5"></path><path d="M690.79 530.89L690.79 530.89" stroke="#132e65" stroke-width="1.5"></path><path d="M690.79 530.89L848.48 545.25" stroke="#132e65" stroke-width="1.5"></path><path d="M690.79 530.89L653.83 691.08" stroke="#132e65" stroke-width="1.5"></path><path d="M653.83 691.08L653.83 691.08" stroke="#132e65" stroke-width="1.5"></path><path d="M653.83 691.08L840.47 655.61" stroke="#132e65" stroke-width="1.5"></path><path d="M653.83 691.08L554.7 500.13" stroke="#132e65" stroke-width="1.5"></path><path d="M790.02 362.63L790.02 362.63" stroke="#132e65" stroke-width="1.5"></path><path d="M790.02 362.63L848.48 545.25" stroke="#132e65" stroke-width="1.5"></path><path d="M848.48 545.25L848.48 545.25" stroke="#132e65" stroke-width="1.5"></path><path d="M848.48 545.25L840.47 655.61" stroke="#132e65" stroke-width="1.5"></path><path d="M848.48 545.25L973.07 533.11" stroke="#132e65" stroke-width="1.5"></path><path d="M848.48 545.25L976.83 653.94" stroke="#132e65" stroke-width="1.5"></path><path d="M840.47 655.61L840.47 655.61" stroke="#132e65" stroke-width="1.5"></path><path d="M840.47 655.61L976.83 653.94" stroke="#132e65" stroke-width="1.5"></path><path d="M840.47 655.61L973.07 533.11" stroke="#132e65" stroke-width="1.5"></path><path d="M949.67 -52.15L949.67 -52.15" stroke="#132e65" stroke-width="1.5"></path><path d="M949.67 -52.15L1004.81 76.84" stroke="#132e65" stroke-width="1.5"></path><path d="M1004.81 76.84L1004.81 76.84" stroke="#132e65" stroke-width="1.5"></path><path d="M1004.81 76.84L1103.78 101.52" stroke="#132e65" stroke-width="1.5"></path><path d="M949.37 217.61L949.37 217.61" stroke="#132e65" stroke-width="1.5"></path><path d="M949.37 217.61L1004.81 76.84" stroke="#132e65" stroke-width="1.5"></path><path d="M949.37 217.61L1000.58 379.66" stroke="#132e65" stroke-width="1.5"></path><path d="M949.37 217.61L1117.78 248.37" stroke="#132e65" stroke-width="1.5"></path><path d="M949.37 217.61L1103.78 101.52" stroke="#132e65" stroke-width="1.5"></path><path d="M1000.58 379.66L1000.58 379.66" stroke="#132e65" stroke-width="1.5"></path><path d="M1000.58 379.66L1116.84 386.53" stroke="#132e65" stroke-width="1.5"></path><path d="M1000.58 379.66L973.07 533.11" stroke="#132e65" stroke-width="1.5"></path><path d="M973.07 533.11L973.07 533.11" stroke="#132e65" stroke-width="1.5"></path><path d="M973.07 533.11L976.83 653.94" stroke="#132e65" stroke-width="1.5"></path><path d="M973.07 533.11L1107.93 550.03" stroke="#132e65" stroke-width="1.5"></path><path d="M976.83 653.94L976.83 653.94" stroke="#132e65" stroke-width="1.5"></path><path d="M1147.7 -104.93L1147.7 -104.93" stroke="#132e65" stroke-width="1.5"></path><path d="M1147.7 -104.93L1248.01 -72.93" stroke="#132e65" stroke-width="1.5"></path><path d="M1147.7 -104.93L1259.81 66.27" stroke="#132e65" stroke-width="1.5"></path><path d="M1147.7 -104.93L949.67 -52.15" stroke="#132e65" stroke-width="1.5"></path><path d="M1103.78 101.52L1103.78 101.52" stroke="#132e65" stroke-width="1.5"></path><path d="M1103.78 101.52L1117.78 248.37" stroke="#132e65" stroke-width="1.5"></path><path d="M1103.78 101.52L1259.81 66.27" stroke="#132e65" stroke-width="1.5"></path><path d="M1117.78 248.37L1117.78 248.37" stroke="#132e65" stroke-width="1.5"></path><path d="M1117.78 248.37L1116.84 386.53" stroke="#132e65" stroke-width="1.5"></path><path d="M1117.78 248.37L1261.66 255.21" stroke="#132e65" stroke-width="1.5"></path><path d="M1117.78 248.37L1000.58 379.66" stroke="#132e65" stroke-width="1.5"></path><path d="M1117.78 248.37L1004.81 76.84" stroke="#132e65" stroke-width="1.5"></path><path d="M1116.84 386.53L1116.84 386.53" stroke="#132e65" stroke-width="1.5"></path><path d="M1107.93 550.03L1107.93 550.03" stroke="#132e65" stroke-width="1.5"></path><path d="M1107.93 550.03L1103.7 705" stroke="#132e65" stroke-width="1.5"></path><path d="M1107.93 550.03L1116.84 386.53" stroke="#132e65" stroke-width="1.5"></path><path d="M1107.93 550.03L976.83 653.94" stroke="#132e65" stroke-width="1.5"></path><path d="M1107.93 550.03L1286.9 510.67" stroke="#132e65" stroke-width="1.5"></path><path d="M1107.93 550.03L1241.4 682.65" stroke="#132e65" stroke-width="1.5"></path><path d="M1103.7 705L1103.7 705" stroke="#132e65" stroke-width="1.5"></path><path d="M1103.7 705L976.83 653.94" stroke="#132e65" stroke-width="1.5"></path><path d="M1103.7 705L1241.4 682.65" stroke="#132e65" stroke-width="1.5"></path><path d="M1103.7 705L973.07 533.11" stroke="#132e65" stroke-width="1.5"></path><path d="M1248.01 -72.93L1248.01 -72.93" stroke="#132e65" stroke-width="1.5"></path><path d="M1248.01 -72.93L1259.81 66.27" stroke="#132e65" stroke-width="1.5"></path><path d="M1248.01 -72.93L1442.45 -54.21" stroke="#132e65" stroke-width="1.5"></path><path d="M1248.01 -72.93L1103.78 101.52" stroke="#132e65" stroke-width="1.5"></path><path d="M1259.81 66.27L1259.81 66.27" stroke="#132e65" stroke-width="1.5"></path><path d="M1259.81 66.27L1261.66 255.21" stroke="#132e65" stroke-width="1.5"></path><path d="M1261.66 255.21L1261.66 255.21" stroke="#132e65" stroke-width="1.5"></path><path d="M1261.66 255.21L1310.47 358.61" stroke="#132e65" stroke-width="1.5"></path><path d="M1261.66 255.21L1418.19 237.31" stroke="#132e65" stroke-width="1.5"></path><path d="M1261.66 255.21L1116.84 386.53" stroke="#132e65" stroke-width="1.5"></path><path d="M1310.47 358.61L1310.47 358.61" stroke="#132e65" stroke-width="1.5"></path><path d="M1310.47 358.61L1286.9 510.67" stroke="#132e65" stroke-width="1.5"></path><path d="M1310.47 358.61L1418.19 237.31" stroke="#132e65" stroke-width="1.5"></path><path d="M1310.47 358.61L1116.84 386.53" stroke="#132e65" stroke-width="1.5"></path><path d="M1310.47 358.61L1432.78 526.95" stroke="#132e65" stroke-width="1.5"></path><path d="M1310.47 358.61L1117.78 248.37" stroke="#132e65" stroke-width="1.5"></path><path d="M1286.9 510.67L1286.9 510.67" stroke="#132e65" stroke-width="1.5"></path><path d="M1286.9 510.67L1432.78 526.95" stroke="#132e65" stroke-width="1.5"></path><path d="M1286.9 510.67L1241.4 682.65" stroke="#132e65" stroke-width="1.5"></path><path d="M1241.4 682.65L1241.4 682.65" stroke="#132e65" stroke-width="1.5"></path><path d="M1241.4 682.65L1426.19 679.94" stroke="#132e65" stroke-width="1.5"></path><path d="M1442.45 -54.21L1442.45 -54.21" stroke="#132e65" stroke-width="1.5"></path><path d="M1442.45 -54.21L1552.94 -76.29" stroke="#132e65" stroke-width="1.5"></path><path d="M1442.45 -54.21L1455.61 84.68" stroke="#132e65" stroke-width="1.5"></path><path d="M1442.45 -54.21L1554.5 40" stroke="#132e65" stroke-width="1.5"></path><path d="M1442.45 -54.21L1259.81 66.27" stroke="#132e65" stroke-width="1.5"></path><path d="M1455.61 84.68L1455.61 84.68" stroke="#132e65" stroke-width="1.5"></path><path d="M1455.61 84.68L1554.5 40" stroke="#132e65" stroke-width="1.5"></path><path d="M1455.61 84.68L1541.2 191.79" stroke="#132e65" stroke-width="1.5"></path><path d="M1418.19 237.31L1418.19 237.31" stroke="#132e65" stroke-width="1.5"></path><path d="M1418.19 237.31L1541.2 191.79" stroke="#132e65" stroke-width="1.5"></path><path d="M1418.19 237.31L1455.61 84.68" stroke="#132e65" stroke-width="1.5"></path><path d="M1432.78 526.95L1432.78 526.95" stroke="#132e65" stroke-width="1.5"></path><path d="M1432.78 526.95L1568.5 547.82" stroke="#132e65" stroke-width="1.5"></path><path d="M1432.78 526.95L1426.19 679.94" stroke="#132e65" stroke-width="1.5"></path><path d="M1432.78 526.95L1564.51 375.75" stroke="#132e65" stroke-width="1.5"></path><path d="M1426.19 679.94L1426.19 679.94" stroke="#132e65" stroke-width="1.5"></path><path d="M1426.19 679.94L1601.44 682.59" stroke="#132e65" stroke-width="1.5"></path><path d="M1426.19 679.94L1568.5 547.82" stroke="#132e65" stroke-width="1.5"></path><path d="M1552.94 -76.29L1552.94 -76.29" stroke="#132e65" stroke-width="1.5"></path><path d="M1552.94 -76.29L1554.5 40" stroke="#132e65" stroke-width="1.5"></path><path d="M1552.94 -76.29L1455.61 84.68" stroke="#132e65" stroke-width="1.5"></path><path d="M1552.94 -76.29L1541.2 191.79" stroke="#132e65" stroke-width="1.5"></path><path d="M1552.94 -76.29L1248.01 -72.93" stroke="#132e65" stroke-width="1.5"></path><path d="M1552.94 -76.29L1259.81 66.27" stroke="#132e65" stroke-width="1.5"></path><path d="M1554.5 40L1554.5 40" stroke="#132e65" stroke-width="1.5"></path><path d="M1541.2 191.79L1541.2 191.79" stroke="#132e65" stroke-width="1.5"></path><path d="M1541.2 191.79L1554.5 40" stroke="#132e65" stroke-width="1.5"></path><path d="M1541.2 191.79L1564.51 375.75" stroke="#132e65" stroke-width="1.5"></path><path d="M1541.2 191.79L1442.45 -54.21" stroke="#132e65" stroke-width="1.5"></path><path d="M1564.51 375.75L1564.51 375.75" stroke="#132e65" stroke-width="1.5"></path><path d="M1564.51 375.75L1568.5 547.82" stroke="#132e65" stroke-width="1.5"></path><path d="M1564.51 375.75L1418.19 237.31" stroke="#132e65" stroke-width="1.5"></path><path d="M1568.5 547.82L1568.5 547.82" stroke="#132e65" stroke-width="1.5"></path><path d="M1568.5 547.82L1601.44 682.59" stroke="#132e65" stroke-width="1.5"></path><path d="M1601.44 682.59L1601.44 682.59" stroke="#132e65" stroke-width="1.5"></path><path d="M1601.44 682.59L1432.78 526.95" stroke="#132e65" stroke-width="1.5"></path><path d="M1601.44 682.59L1564.51 375.75" stroke="#132e65" stroke-width="1.5"></path><path d="M1601.44 682.59L1286.9 510.67" stroke="#132e65" stroke-width="1.5"></path><path d="M1601.44 682.59L1241.4 682.65" stroke="#132e65" stroke-width="1.5"></path><circle r="5" cx="-84.43" cy="398.96" fill="#132e65"></circle><circle r="5" cx="-61.63" cy="535.41" fill="#132e65"></circle><circle r="5" cx="-89.06" cy="699.96" fill="#132e65"></circle><circle r="5" cx="73.29" cy="356.96" fill="#132e65"></circle><circle r="5" cx="69.75" cy="519.56" fill="#132e65"></circle><circle r="5" cx="64.5" cy="646.05" fill="#132e65"></circle><circle r="5" cx="243.8" cy="340.53" fill="#132e65"></circle><circle r="5" cx="235.73" cy="518.91" fill="#132e65"></circle><circle r="5" cx="210.77" cy="673.12" fill="#132e65"></circle><circle r="5" cx="345.87" cy="352.2" fill="#132e65"></circle><circle r="5" cx="355.65" cy="541.03" fill="#132e65"></circle><circle r="5" cx="402.18" cy="698.94" fill="#132e65"></circle><circle r="5" cx="561.43" cy="340.82" fill="#132e65"></circle><circle r="5" cx="554.7" cy="500.13" fill="#132e65"></circle><circle r="5" cx="539.89" cy="679.65" fill="#132e65"></circle><circle r="5" cx="673.71" cy="349.51" fill="#132e65"></circle><circle r="5" cx="690.79" cy="530.89" fill="#132e65"></circle><circle r="5" cx="653.83" cy="691.08" fill="#132e65"></circle><circle r="5" cx="790.02" cy="362.63" fill="#132e65"></circle><circle r="5" cx="848.48" cy="545.25" fill="#132e65"></circle><circle r="5" cx="840.47" cy="655.61" fill="#132e65"></circle><circle r="5" cx="949.67" cy="-52.15" fill="#132e65"></circle><circle r="5" cx="1004.81" cy="76.84" fill="#132e65"></circle><circle r="5" cx="949.37" cy="217.61" fill="#132e65"></circle><circle r="5" cx="1000.58" cy="379.66" fill="#132e65"></circle><circle r="5" cx="973.07" cy="533.11" fill="#132e65"></circle><circle r="5" cx="976.83" cy="653.94" fill="#132e65"></circle><circle r="5" cx="1147.7" cy="-104.93" fill="#132e65"></circle><circle r="5" cx="1103.78" cy="101.52" fill="#132e65"></circle><circle r="5" cx="1117.78" cy="248.37" fill="#132e65"></circle><circle r="5" cx="1116.84" cy="386.53" fill="#132e65"></circle><circle r="5" cx="1107.93" cy="550.03" fill="#132e65"></circle><circle r="5" cx="1103.7" cy="705" fill="#132e65"></circle><circle r="5" cx="1248.01" cy="-72.93" fill="#132e65"></circle><circle r="5" cx="1259.81" cy="66.27" fill="#132e65"></circle><circle r="5" cx="1261.66" cy="255.21" fill="#132e65"></circle><circle r="5" cx="1310.47" cy="358.61" fill="#132e65"></circle><circle r="5" cx="1286.9" cy="510.67" fill="#132e65"></circle><circle r="5" cx="1241.4" cy="682.65" fill="#132e65"></circle><circle r="5" cx="1442.45" cy="-54.21" fill="#132e65"></circle><circle r="5" cx="1455.61" cy="84.68" fill="#132e65"></circle><circle r="5" cx="1418.19" cy="237.31" fill="#132e65"></circle><circle r="5" cx="1432.78" cy="526.95" fill="#132e65"></circle><circle r="5" cx="1426.19" cy="679.94" fill="#132e65"></circle><circle r="5" cx="1552.94" cy="-76.29" fill="#132e65"></circle><circle r="5" cx="1554.5" cy="40" fill="#132e65"></circle><circle r="5" cx="1541.2" cy="191.79" fill="#132e65"></circle><circle r="5" cx="1564.51" cy="375.75" fill="#132e65"></circle><circle r="5" cx="1568.5" cy="547.82" fill="#132e65"></circle><circle r="5" cx="1601.44" cy="682.59" fill="#132e65"></circle><path d="M650.39 652.5L650.39 652.5" stroke="hsl(228.5, 77.2%, 51.5%)" stroke-width="1.5"></path><path d="M650.39 652.5L667.62 510.27" stroke="hsl(228.5, 77.2%, 51.5%)" stroke-width="1.5"></path><path d="M650.39 652.5L507.09 671.42" stroke="hsl(228.5, 77.2%, 51.5%)" stroke-width="1.5"></path><path d="M650.39 652.5L802.91 702.95" stroke="hsl(228.5, 77.2%, 51.5%)" stroke-width="1.5"></path><path d="M650.39 652.5L791.81 527.32" stroke="hsl(228.5, 77.2%, 51.5%)" stroke-width="1.5"></path><path d="M650.39 652.5L528.64 493.62" stroke="hsl(228.5, 77.2%, 51.5%)" stroke-width="1.5"></path><path d="M650.39 652.5L372.24 704.92" stroke="hsl(228.5, 77.2%, 51.5%)" stroke-width="1.5"></path><path d="M1294.37 385.94L1294.37 385.94" stroke="hsl(228.5, 77.2%, 51.5%)" stroke-width="1.5"></path><path d="M1294.37 385.94L1410.07 379.99" stroke="hsl(228.5, 77.2%, 51.5%)" stroke-width="1.5"></path><path d="M1294.37 385.94L1287.87 247.77" stroke="hsl(228.5, 77.2%, 51.5%)" stroke-width="1.5"></path><path d="M1294.37 385.94L1256.35 528.12" stroke="hsl(228.5, 77.2%, 51.5%)" stroke-width="1.5"></path><path d="M1294.37 385.94L1431.04 254.7" stroke="hsl(228.5, 77.2%, 51.5%)" stroke-width="1.5"></path><path d="M1294.37 385.94L1390.01 556.22" stroke="hsl(228.5, 77.2%, 51.5%)" stroke-width="1.5"></path><path d="M1409.75 682.27L1409.75 682.27" stroke="hsl(228.5, 77.2%, 51.5%)" stroke-width="1.5"></path><path d="M1409.75 682.27L1390.01 556.22" stroke="hsl(228.5, 77.2%, 51.5%)" stroke-width="1.5"></path><path d="M1409.75 682.27L1259.37 651.66" stroke="hsl(228.5, 77.2%, 51.5%)" stroke-width="1.5"></path><path d="M1409.75 682.27L1568.45 706.39" stroke="hsl(228.5, 77.2%, 51.5%)" stroke-width="1.5"></path><path d="M1409.75 682.27L1574.91 542.94" stroke="hsl(228.5, 77.2%, 51.5%)" stroke-width="1.5"></path><path d="M1564.47 386.14L1564.47 386.14" stroke="hsl(228.5, 77.2%, 51.5%)" stroke-width="1.5"></path><path d="M1564.47 386.14L1544.55 240.59" stroke="hsl(228.5, 77.2%, 51.5%)" stroke-width="1.5"></path><path d="M1564.47 386.14L1410.07 379.99" stroke="hsl(228.5, 77.2%, 51.5%)" stroke-width="1.5"></path><path d="M1564.47 386.14L1574.91 542.94" stroke="hsl(228.5, 77.2%, 51.5%)" stroke-width="1.5"></path><path d="M1564.47 386.14L1431.04 254.7" stroke="hsl(228.5, 77.2%, 51.5%)" stroke-width="1.5"></path><path d="M1564.47 386.14L1390.01 556.22" stroke="hsl(228.5, 77.2%, 51.5%)" stroke-width="1.5"></path><path d="M1564.47 386.14L1294.37 385.94" stroke="hsl(228.5, 77.2%, 51.5%)" stroke-width="1.5"></path><path d="M1568.45 706.39L1568.45 706.39" stroke="hsl(228.5, 77.2%, 51.5%)" stroke-width="1.5"></path><path d="M1568.45 706.39L1574.91 542.94" stroke="hsl(228.5, 77.2%, 51.5%)" stroke-width="1.5"></path><path d="M1568.45 706.39L1390.01 556.22" stroke="hsl(228.5, 77.2%, 51.5%)" stroke-width="1.5"></path><path d="M1568.45 706.39L1259.37 651.66" stroke="hsl(228.5, 77.2%, 51.5%)" stroke-width="1.5"></path><path d="M1568.45 706.39L1564.47 386.14" stroke="hsl(228.5, 77.2%, 51.5%)" stroke-width="1.5"></path><path d="M-64.14 655.47L-64.14 655.47" stroke="hsl(228.5, 77.2%, 51.5%)" stroke-width="1.5"></path><path d="M-64.14 655.47L66.51 647.84" stroke="hsl(228.5, 77.2%, 51.5%)" stroke-width="1.5"></path><path d="M-64.14 655.47L56.62 543.47" stroke="hsl(228.5, 77.2%, 51.5%)" stroke-width="1.5"></path><path d="M-64.14 655.47L217.55 550.28" stroke="hsl(228.5, 77.2%, 51.5%)" stroke-width="1.5"></path><path d="M56.62 543.47L56.62 543.47" stroke="hsl(228.5, 77.2%, 51.5%)" stroke-width="1.5"></path><path d="M56.62 543.47L66.51 647.84" stroke="hsl(228.5, 77.2%, 51.5%)" stroke-width="1.5"></path><path d="M56.62 543.47L217.55 550.28" stroke="hsl(228.5, 77.2%, 51.5%)" stroke-width="1.5"></path><path d="M56.62 543.47L253.71 665.83" stroke="hsl(228.5, 77.2%, 51.5%)" stroke-width="1.5"></path><path d="M66.51 647.84L66.51 647.84" stroke="hsl(228.5, 77.2%, 51.5%)" stroke-width="1.5"></path><path d="M217.55 550.28L217.55 550.28" stroke="hsl(228.5, 77.2%, 51.5%)" stroke-width="1.5"></path><path d="M217.55 550.28L253.71 665.83" stroke="hsl(228.5, 77.2%, 51.5%)" stroke-width="1.5"></path><path d="M253.71 665.83L253.71 665.83" stroke="hsl(228.5, 77.2%, 51.5%)" stroke-width="1.5"></path><path d="M253.71 665.83L372.24 704.92" stroke="hsl(228.5, 77.2%, 51.5%)" stroke-width="1.5"></path><path d="M253.71 665.83L66.51 647.84" stroke="hsl(228.5, 77.2%, 51.5%)" stroke-width="1.5"></path><path d="M253.71 665.83L507.09 671.42" stroke="hsl(228.5, 77.2%, 51.5%)" stroke-width="1.5"></path><path d="M372.24 704.92L372.24 704.92" stroke="hsl(228.5, 77.2%, 51.5%)" stroke-width="1.5"></path><path d="M372.24 704.92L507.09 671.42" stroke="hsl(228.5, 77.2%, 51.5%)" stroke-width="1.5"></path><path d="M372.24 704.92L217.55 550.28" stroke="hsl(228.5, 77.2%, 51.5%)" stroke-width="1.5"></path><path d="M372.24 704.92L528.64 493.62" stroke="hsl(228.5, 77.2%, 51.5%)" stroke-width="1.5"></path><path d="M528.64 493.62L528.64 493.62" stroke="hsl(228.5, 77.2%, 51.5%)" stroke-width="1.5"></path><path d="M528.64 493.62L667.62 510.27" stroke="hsl(228.5, 77.2%, 51.5%)" stroke-width="1.5"></path><path d="M528.64 493.62L507.09 671.42" stroke="hsl(228.5, 77.2%, 51.5%)" stroke-width="1.5"></path><path d="M507.09 671.42L507.09 671.42" stroke="hsl(228.5, 77.2%, 51.5%)" stroke-width="1.5"></path><path d="M507.09 671.42L667.62 510.27" stroke="hsl(228.5, 77.2%, 51.5%)" stroke-width="1.5"></path><path d="M507.09 671.42L802.91 702.95" stroke="hsl(228.5, 77.2%, 51.5%)" stroke-width="1.5"></path><path d="M667.62 510.27L667.62 510.27" stroke="hsl(228.5, 77.2%, 51.5%)" stroke-width="1.5"></path><path d="M667.62 510.27L791.81 527.32" stroke="hsl(228.5, 77.2%, 51.5%)" stroke-width="1.5"></path><path d="M791.81 527.32L791.81 527.32" stroke="hsl(228.5, 77.2%, 51.5%)" stroke-width="1.5"></path><path d="M791.81 527.32L802.91 702.95" stroke="hsl(228.5, 77.2%, 51.5%)" stroke-width="1.5"></path><path d="M791.81 527.32L1000.31 499" stroke="hsl(228.5, 77.2%, 51.5%)" stroke-width="1.5"></path><path d="M791.81 527.32L963.96 381.8" stroke="hsl(228.5, 77.2%, 51.5%)" stroke-width="1.5"></path><path d="M802.91 702.95L802.91 702.95" stroke="hsl(228.5, 77.2%, 51.5%)" stroke-width="1.5"></path><path d="M802.91 702.95L955.06 693.9" stroke="hsl(228.5, 77.2%, 51.5%)" stroke-width="1.5"></path><path d="M963.96 381.8L963.96 381.8" stroke="hsl(228.5, 77.2%, 51.5%)" stroke-width="1.5"></path><path d="M963.96 381.8L1000.31 499" stroke="hsl(228.5, 77.2%, 51.5%)" stroke-width="1.5"></path><path d="M963.96 381.8L1097.06 343.95" stroke="hsl(228.5, 77.2%, 51.5%)" stroke-width="1.5"></path><path d="M963.96 381.8L1105.4 509.25" stroke="hsl(228.5, 77.2%, 51.5%)" stroke-width="1.5"></path><path d="M1000.31 499L1000.31 499" stroke="hsl(228.5, 77.2%, 51.5%)" stroke-width="1.5"></path><path d="M1000.31 499L1105.4 509.25" stroke="hsl(228.5, 77.2%, 51.5%)" stroke-width="1.5"></path><path d="M1000.31 499L1097.06 343.95" stroke="hsl(228.5, 77.2%, 51.5%)" stroke-width="1.5"></path><path d="M955.06 693.9L955.06 693.9" stroke="hsl(228.5, 77.2%, 51.5%)" stroke-width="1.5"></path><path d="M955.06 693.9L1098.28 694.95" stroke="hsl(228.5, 77.2%, 51.5%)" stroke-width="1.5"></path><path d="M955.06 693.9L1000.31 499" stroke="hsl(228.5, 77.2%, 51.5%)" stroke-width="1.5"></path><path d="M1150.15 60.14L1150.15 60.14" stroke="hsl(228.5, 77.2%, 51.5%)" stroke-width="1.5"></path><path d="M1150.15 60.14L1279.43 95.22" stroke="hsl(228.5, 77.2%, 51.5%)" stroke-width="1.5"></path><path d="M1150.15 60.14L1104.5 239.5" stroke="hsl(228.5, 77.2%, 51.5%)" stroke-width="1.5"></path><path d="M1104.5 239.5L1104.5 239.5" stroke="hsl(228.5, 77.2%, 51.5%)" stroke-width="1.5"></path><path d="M1104.5 239.5L1097.06 343.95" stroke="hsl(228.5, 77.2%, 51.5%)" stroke-width="1.5"></path><path d="M1104.5 239.5L1287.87 247.77" stroke="hsl(228.5, 77.2%, 51.5%)" stroke-width="1.5"></path><path d="M1097.06 343.95L1097.06 343.95" stroke="hsl(228.5, 77.2%, 51.5%)" stroke-width="1.5"></path><path d="M1105.4 509.25L1105.4 509.25" stroke="hsl(228.5, 77.2%, 51.5%)" stroke-width="1.5"></path><path d="M1105.4 509.25L1256.35 528.12" stroke="hsl(228.5, 77.2%, 51.5%)" stroke-width="1.5"></path><path d="M1098.28 694.95L1098.28 694.95" stroke="hsl(228.5, 77.2%, 51.5%)" stroke-width="1.5"></path><path d="M1098.28 694.95L1259.37 651.66" stroke="hsl(228.5, 77.2%, 51.5%)" stroke-width="1.5"></path><path d="M1278.89 -78.35L1278.89 -78.35" stroke="hsl(228.5, 77.2%, 51.5%)" stroke-width="1.5"></path><path d="M1278.89 -78.35L1413.74 -41.23" stroke="hsl(228.5, 77.2%, 51.5%)" stroke-width="1.5"></path><path d="M1278.89 -78.35L1279.43 95.22" stroke="hsl(228.5, 77.2%, 51.5%)" stroke-width="1.5"></path><path d="M1278.89 -78.35L1150.15 60.14" stroke="hsl(228.5, 77.2%, 51.5%)" stroke-width="1.5"></path><path d="M1278.89 -78.35L1432.27 83.83" stroke="hsl(228.5, 77.2%, 51.5%)" stroke-width="1.5"></path><path d="M1279.43 95.22L1279.43 95.22" stroke="hsl(228.5, 77.2%, 51.5%)" stroke-width="1.5"></path><path d="M1279.43 95.22L1287.87 247.77" stroke="hsl(228.5, 77.2%, 51.5%)" stroke-width="1.5"></path><path d="M1279.43 95.22L1432.27 83.83" stroke="hsl(228.5, 77.2%, 51.5%)" stroke-width="1.5"></path><path d="M1287.87 247.77L1287.87 247.77" stroke="hsl(228.5, 77.2%, 51.5%)" stroke-width="1.5"></path><path d="M1287.87 247.77L1431.04 254.7" stroke="hsl(228.5, 77.2%, 51.5%)" stroke-width="1.5"></path><path d="M1256.35 528.12L1256.35 528.12" stroke="hsl(228.5, 77.2%, 51.5%)" stroke-width="1.5"></path><path d="M1256.35 528.12L1259.37 651.66" stroke="hsl(228.5, 77.2%, 51.5%)" stroke-width="1.5"></path><path d="M1256.35 528.12L1390.01 556.22" stroke="hsl(228.5, 77.2%, 51.5%)" stroke-width="1.5"></path><path d="M1259.37 651.66L1259.37 651.66" stroke="hsl(228.5, 77.2%, 51.5%)" stroke-width="1.5"></path><path d="M1413.74 -41.23L1413.74 -41.23" stroke="hsl(228.5, 77.2%, 51.5%)" stroke-width="1.5"></path><path d="M1413.74 -41.23L1432.27 83.83" stroke="hsl(228.5, 77.2%, 51.5%)" stroke-width="1.5"></path><path d="M1432.27 83.83L1432.27 83.83" stroke="hsl(228.5, 77.2%, 51.5%)" stroke-width="1.5"></path><path d="M1432.27 83.83L1590.18 66.19" stroke="hsl(228.5, 77.2%, 51.5%)" stroke-width="1.5"></path><path d="M1432.27 83.83L1431.04 254.7" stroke="hsl(228.5, 77.2%, 51.5%)" stroke-width="1.5"></path><path d="M1432.27 83.83L1544.55 240.59" stroke="hsl(228.5, 77.2%, 51.5%)" stroke-width="1.5"></path><path d="M1431.04 254.7L1431.04 254.7" stroke="hsl(228.5, 77.2%, 51.5%)" stroke-width="1.5"></path><path d="M1431.04 254.7L1544.55 240.59" stroke="hsl(228.5, 77.2%, 51.5%)" stroke-width="1.5"></path><path d="M1431.04 254.7L1410.07 379.99" stroke="hsl(228.5, 77.2%, 51.5%)" stroke-width="1.5"></path><path d="M1410.07 379.99L1410.07 379.99" stroke="hsl(228.5, 77.2%, 51.5%)" stroke-width="1.5"></path><path d="M1410.07 379.99L1390.01 556.22" stroke="hsl(228.5, 77.2%, 51.5%)" stroke-width="1.5"></path><path d="M1410.07 379.99L1287.87 247.77" stroke="hsl(228.5, 77.2%, 51.5%)" stroke-width="1.5"></path><path d="M1390.01 556.22L1390.01 556.22" stroke="hsl(228.5, 77.2%, 51.5%)" stroke-width="1.5"></path><path d="M1580.94 -85.04L1580.94 -85.04" stroke="hsl(228.5, 77.2%, 51.5%)" stroke-width="1.5"></path><path d="M1580.94 -85.04L1590.18 66.19" stroke="hsl(228.5, 77.2%, 51.5%)" stroke-width="1.5"></path><path d="M1580.94 -85.04L1413.74 -41.23" stroke="hsl(228.5, 77.2%, 51.5%)" stroke-width="1.5"></path><path d="M1580.94 -85.04L1432.27 83.83" stroke="hsl(228.5, 77.2%, 51.5%)" stroke-width="1.5"></path><path d="M1590.18 66.19L1590.18 66.19" stroke="hsl(228.5, 77.2%, 51.5%)" stroke-width="1.5"></path><path d="M1590.18 66.19L1544.55 240.59" stroke="hsl(228.5, 77.2%, 51.5%)" stroke-width="1.5"></path><path d="M1590.18 66.19L1413.74 -41.23" stroke="hsl(228.5, 77.2%, 51.5%)" stroke-width="1.5"></path><path d="M1590.18 66.19L1431.04 254.7" stroke="hsl(228.5, 77.2%, 51.5%)" stroke-width="1.5"></path><path d="M1590.18 66.19L1279.43 95.22" stroke="hsl(228.5, 77.2%, 51.5%)" stroke-width="1.5"></path><path d="M1544.55 240.59L1544.55 240.59" stroke="hsl(228.5, 77.2%, 51.5%)" stroke-width="1.5"></path><path d="M1574.91 542.94L1574.91 542.94" stroke="hsl(228.5, 77.2%, 51.5%)" stroke-width="1.5"></path><path d="M1574.91 542.94L1390.01 556.22" stroke="hsl(228.5, 77.2%, 51.5%)" stroke-width="1.5"></path><circle r="25" cx="650.39" cy="652.5" fill="url(#SvgjsRadialGradient1003)"></circle><circle r="25" cx="1294.37" cy="385.94" fill="url(#SvgjsRadialGradient1003)"></circle><circle r="25" cx="1409.75" cy="682.27" fill="url(#SvgjsRadialGradient1003)"></circle><circle r="25" cx="1564.47" cy="386.14" fill="url(#SvgjsRadialGradient1003)"></circle><circle r="25" cx="1568.45" cy="706.39" fill="url(#SvgjsRadialGradient1003)"></circle><circle r="5" cx="-64.14" cy="655.47" fill="#8b9ad9"></circle><circle r="5" cx="56.62" cy="543.47" fill="#8b9ad9"></circle><circle r="5" cx="66.51" cy="647.84" fill="#8b9ad9"></circle><circle r="5" cx="217.55" cy="550.28" fill="#8b9ad9"></circle><circle r="5" cx="253.71" cy="665.83" fill="#8b9ad9"></circle><circle r="5" cx="372.24" cy="704.92" fill="#8b9ad9"></circle><circle r="5" cx="528.64" cy="493.62" fill="#8b9ad9"></circle><circle r="5" cx="507.09" cy="671.42" fill="#8b9ad9"></circle><circle r="5" cx="667.62" cy="510.27" fill="#8b9ad9"></circle><circle r="5" cx="791.81" cy="527.32" fill="#8b9ad9"></circle><circle r="5" cx="802.91" cy="702.95" fill="#8b9ad9"></circle><circle r="5" cx="963.96" cy="381.8" fill="#8b9ad9"></circle><circle r="5" cx="1000.31" cy="499" fill="#8b9ad9"></circle><circle r="5" cx="955.06" cy="693.9" fill="#8b9ad9"></circle><circle r="5" cx="1150.15" cy="60.14" fill="#8b9ad9"></circle><circle r="5" cx="1104.5" cy="239.5" fill="#8b9ad9"></circle><circle r="5" cx="1097.06" cy="343.95" fill="#8b9ad9"></circle><circle r="5" cx="1105.4" cy="509.25" fill="#8b9ad9"></circle><circle r="5" cx="1098.28" cy="694.95" fill="#8b9ad9"></circle><circle r="5" cx="1278.89" cy="-78.35" fill="#8b9ad9"></circle><circle r="5" cx="1279.43" cy="95.22" fill="#8b9ad9"></circle><circle r="5" cx="1287.87" cy="247.77" fill="#8b9ad9"></circle><circle r="5" cx="1256.35" cy="528.12" fill="#8b9ad9"></circle><circle r="5" cx="1259.37" cy="651.66" fill="#8b9ad9"></circle><circle r="5" cx="1413.74" cy="-41.23" fill="#8b9ad9"></circle><circle r="5" cx="1432.27" cy="83.83" fill="#8b9ad9"></circle><circle r="5" cx="1431.04" cy="254.7" fill="#8b9ad9"></circle><circle r="5" cx="1410.07" cy="379.99" fill="#8b9ad9"></circle><circle r="5" cx="1390.01" cy="556.22" fill="#8b9ad9"></circle><circle r="5" cx="1580.94" cy="-85.04" fill="#8b9ad9"></circle><circle r="5" cx="1590.18" cy="66.19" fill="#8b9ad9"></circle><circle r="5" cx="1544.55" cy="240.59" fill="#8b9ad9"></circle><circle r="5" cx="1574.91" cy="542.94" fill="#8b9ad9"></circle></g><defs><mask id="SvgjsMask1002"><rect width="1440" height="560" fill="#ffffff"></rect></mask><radialGradient id="SvgjsRadialGradient1003"><stop stop-color="#ffffff" offset="0.1"></stop><stop stop-color="#1735b3" offset="0.2"></stop><stop stop-color="rgba(23, 53, 179, 0)" offset="1"></stop></radialGradient></defs></svg>